<mxfile host="app.diagrams.net" agent="Mozilla/5.0 (Windows NT 10.0; Win64; x64) AppleWebKit/537.36 (KHTML, like Gecko) Chrome/132.0.0.0 Safari/537.36" version="26.0.10">
  <diagram name="Страница — 1" id="CXfv7TK9HOuzbY4gjjUD">
    <mxGraphModel grid="1" page="1" gridSize="10" guides="1" tooltips="1" connect="1" arrows="1" fold="1" pageScale="1" pageWidth="827" pageHeight="1169" math="0" shadow="0">
      <root>
        <mxCell id="0" />
        <mxCell id="1" parent="0" />
        <mxCell id="7xml_MiVRQEzrnD8rN6_-3" style="edgeStyle=orthogonalEdgeStyle;rounded=0;orthogonalLoop=1;jettySize=auto;html=1;exitX=1;exitY=0.5;exitDx=0;exitDy=0;entryX=0;entryY=0.5;entryDx=0;entryDy=0;" edge="1" parent="1" source="7xml_MiVRQEzrnD8rN6_-1" target="7xml_MiVRQEzrnD8rN6_-2">
          <mxGeometry relative="1" as="geometry" />
        </mxCell>
        <mxCell id="7xml_MiVRQEzrnD8rN6_-4" value="&lt;font style=&quot;font-size: 10px;&quot;&gt;Система&amp;nbsp;&lt;/font&gt;&lt;div&gt;&lt;font style=&quot;font-size: 10px;&quot;&gt;готова к работе&lt;/font&gt;&lt;/div&gt;" style="edgeLabel;html=1;align=center;verticalAlign=middle;resizable=0;points=[];" vertex="1" connectable="0" parent="7xml_MiVRQEzrnD8rN6_-3">
          <mxGeometry x="-0.0056" y="1" relative="1" as="geometry">
            <mxPoint as="offset" />
          </mxGeometry>
        </mxCell>
        <mxCell id="7xml_MiVRQEzrnD8rN6_-1" value="&lt;font style=&quot;font-size: 10px;&quot;&gt;S1&lt;/font&gt;&lt;div style=&quot;text-align: start;&quot;&gt;&lt;font style=&quot;font-size: 10px;&quot;&gt;Подготовка&lt;/font&gt;&lt;/div&gt;&lt;div style=&quot;text-align: start;&quot;&gt;&lt;font style=&quot;font-size: 10px;&quot;&gt;&amp;nbsp;к работе&lt;/font&gt;&lt;/div&gt;" style="ellipse;whiteSpace=wrap;html=1;aspect=fixed;" vertex="1" parent="1">
          <mxGeometry x="130.5" y="500" width="70" height="70" as="geometry" />
        </mxCell>
        <mxCell id="7xml_MiVRQEzrnD8rN6_-2" value="&lt;font style=&quot;font-size: 10px;&quot;&gt;S2&lt;/font&gt;&lt;div&gt;&lt;font style=&quot;font-size: 10px;&quot;&gt;Ожидание пароля или карточки&lt;/font&gt;&lt;/div&gt;" style="ellipse;whiteSpace=wrap;html=1;aspect=fixed;" vertex="1" parent="1">
          <mxGeometry x="310.5" y="500" width="70" height="70" as="geometry" />
        </mxCell>
        <mxCell id="7xml_MiVRQEzrnD8rN6_-5" value="&lt;font style=&quot;font-size: 10px;&quot;&gt;s3&lt;/font&gt;&lt;div&gt;&lt;font style=&quot;font-size: 10px;&quot;&gt;Проверка пароля&lt;/font&gt;&lt;/div&gt;" style="ellipse;whiteSpace=wrap;html=1;aspect=fixed;" vertex="1" parent="1">
          <mxGeometry x="309.5" y="730" width="70" height="70" as="geometry" />
        </mxCell>
        <mxCell id="7xml_MiVRQEzrnD8rN6_-9" value="&lt;font style=&quot;font-size: 10px;&quot;&gt;S5&lt;/font&gt;&lt;div&gt;&lt;span style=&quot;font-size: 10px;&quot;&gt;Проход через калитку разрешён&lt;/span&gt;&lt;/div&gt;" style="ellipse;whiteSpace=wrap;html=1;aspect=fixed;" vertex="1" parent="1">
          <mxGeometry x="469.5" y="730" width="70" height="70" as="geometry" />
        </mxCell>
        <mxCell id="7xml_MiVRQEzrnD8rN6_-10" value="&lt;font style=&quot;font-size: 10px;&quot;&gt;s4&lt;/font&gt;&lt;div&gt;&lt;span style=&quot;font-size: 10px;&quot;&gt;Проход через калитку запрещён&lt;/span&gt;&lt;/div&gt;" style="ellipse;whiteSpace=wrap;html=1;aspect=fixed;" vertex="1" parent="1">
          <mxGeometry x="150" y="730" width="70" height="70" as="geometry" />
        </mxCell>
        <mxCell id="7xml_MiVRQEzrnD8rN6_-19" value="&lt;font style=&quot;font-size: 10px;&quot;&gt;S6&lt;/font&gt;&lt;div&gt;&lt;span style=&quot;font-size: 10px;&quot;&gt;Проверка UID по базе данных&lt;/span&gt;&lt;/div&gt;" style="ellipse;whiteSpace=wrap;html=1;aspect=fixed;" vertex="1" parent="1">
          <mxGeometry x="143" y="270" width="70" height="70" as="geometry" />
        </mxCell>
        <mxCell id="7xml_MiVRQEzrnD8rN6_-21" value="&lt;div&gt;&lt;span style=&quot;font-size: 10px;&quot;&gt;S8&lt;/span&gt;&lt;/div&gt;&lt;span style=&quot;font-size: 10px;&quot;&gt;Проезд через ворота разрешён&lt;/span&gt;" style="ellipse;whiteSpace=wrap;html=1;aspect=fixed;" vertex="1" parent="1">
          <mxGeometry x="310.5" y="40" width="70" height="70" as="geometry" />
        </mxCell>
        <mxCell id="7xml_MiVRQEzrnD8rN6_-22" value="&lt;font style=&quot;font-size: 9px;&quot;&gt;S7&lt;/font&gt;&lt;div&gt;&lt;font style=&quot;font-size: 9px;&quot;&gt;Проезд через ворота запрещён&lt;/font&gt;&lt;/div&gt;" style="ellipse;whiteSpace=wrap;html=1;aspect=fixed;" vertex="1" parent="1">
          <mxGeometry x="309.5" y="270" width="70" height="70" as="geometry" />
        </mxCell>
        <mxCell id="7xml_MiVRQEzrnD8rN6_-57" value="" style="shape=flexArrow;endArrow=classic;html=1;rounded=0;fillColor=#009900;" edge="1" parent="1">
          <mxGeometry width="50" height="50" relative="1" as="geometry">
            <mxPoint x="60.5" y="534.41" as="sourcePoint" />
            <mxPoint x="130.5" y="534.41" as="targetPoint" />
          </mxGeometry>
        </mxCell>
        <mxCell id="7xml_MiVRQEzrnD8rN6_-127" style="edgeStyle=orthogonalEdgeStyle;rounded=0;orthogonalLoop=1;jettySize=auto;html=1;entryX=0;entryY=0.5;entryDx=0;entryDy=0;" edge="1" parent="1" source="7xml_MiVRQEzrnD8rN6_-120" target="7xml_MiVRQEzrnD8rN6_-123">
          <mxGeometry relative="1" as="geometry" />
        </mxCell>
        <mxCell id="7xml_MiVRQEzrnD8rN6_-144" value="Ворота&lt;div&gt;открылись&lt;/div&gt;" style="edgeLabel;html=1;align=center;verticalAlign=middle;resizable=0;points=[];" vertex="1" connectable="0" parent="7xml_MiVRQEzrnD8rN6_-127">
          <mxGeometry x="-0.0231" y="1" relative="1" as="geometry">
            <mxPoint as="offset" />
          </mxGeometry>
        </mxCell>
        <mxCell id="7xml_MiVRQEzrnD8rN6_-120" value="&lt;font style=&quot;font-size: 9px;&quot;&gt;S8.0&lt;/font&gt;&lt;div&gt;&lt;font style=&quot;font-size: 9px;&quot;&gt;Ворота&lt;/font&gt;&lt;/div&gt;&lt;div&gt;&lt;font style=&quot;font-size: 9px;&quot;&gt;открываются&lt;/font&gt;&lt;/div&gt;" style="ellipse;whiteSpace=wrap;html=1;aspect=fixed;" vertex="1" parent="1">
          <mxGeometry x="187" y="3230" width="70" height="70" as="geometry" />
        </mxCell>
        <mxCell id="7xml_MiVRQEzrnD8rN6_-121" value="" style="shape=flexArrow;endArrow=classic;html=1;rounded=0;fillColor=#009900;" edge="1" parent="1">
          <mxGeometry width="50" height="50" relative="1" as="geometry">
            <mxPoint x="117" y="3264.4700000000003" as="sourcePoint" />
            <mxPoint x="187" y="3264.4700000000003" as="targetPoint" />
          </mxGeometry>
        </mxCell>
        <mxCell id="7xml_MiVRQEzrnD8rN6_-123" value="&lt;div&gt;&lt;font style=&quot;font-size: 9px;&quot;&gt;S8.1&lt;/font&gt;&lt;/div&gt;&lt;font style=&quot;font-size: 9px;&quot;&gt;Ожидание&amp;nbsp;&lt;/font&gt;&lt;div&gt;&lt;font style=&quot;font-size: 9px;&quot;&gt;обнаружения&amp;nbsp;&lt;/font&gt;&lt;/div&gt;&lt;div&gt;&lt;font style=&quot;font-size: 9px;&quot;&gt;автомобиля&lt;/font&gt;&lt;/div&gt;" style="ellipse;whiteSpace=wrap;html=1;aspect=fixed;" vertex="1" parent="1">
          <mxGeometry x="467" y="3230" width="80" height="80" as="geometry" />
        </mxCell>
        <mxCell id="7xml_MiVRQEzrnD8rN6_-124" value="&lt;div&gt;&lt;font style=&quot;font-size: 9px;&quot;&gt;S8.2&lt;/font&gt;&lt;/div&gt;&lt;span style=&quot;font-size: 10px;&quot;&gt;Ожидание&amp;nbsp;&lt;/span&gt;&lt;div&gt;&lt;span style=&quot;font-size: 10px;&quot;&gt;проезда&lt;/span&gt;&lt;/div&gt;&lt;div&gt;&lt;span style=&quot;font-size: 10px;&quot;&gt;авто&lt;/span&gt;&lt;/div&gt;" style="ellipse;whiteSpace=wrap;html=1;aspect=fixed;" vertex="1" parent="1">
          <mxGeometry x="572" y="3400" width="70" height="70" as="geometry" />
        </mxCell>
        <mxCell id="7xml_MiVRQEzrnD8rN6_-125" value="&lt;div&gt;&lt;font style=&quot;font-size: 9px;&quot;&gt;S8.3&lt;/font&gt;&lt;/div&gt;&lt;span style=&quot;font-size: 10px;&quot;&gt;Ожидание&amp;nbsp;&lt;/span&gt;&lt;div&gt;&lt;span style=&quot;font-size: 10px;&quot;&gt;после&lt;/span&gt;&lt;/div&gt;&lt;div&gt;&lt;span style=&quot;font-size: 10px;&quot;&gt;проезда авто&lt;/span&gt;&lt;/div&gt;" style="ellipse;whiteSpace=wrap;html=1;aspect=fixed;" vertex="1" parent="1">
          <mxGeometry x="467" y="3530" width="80" height="80" as="geometry" />
        </mxCell>
        <mxCell id="UQzExY35ptfeDzWS35jL-149" style="edgeStyle=orthogonalEdgeStyle;rounded=0;orthogonalLoop=1;jettySize=auto;html=1;entryX=0;entryY=0.5;entryDx=0;entryDy=0;" edge="1" parent="1" source="7xml_MiVRQEzrnD8rN6_-126" target="7xml_MiVRQEzrnD8rN6_-124">
          <mxGeometry relative="1" as="geometry" />
        </mxCell>
        <mxCell id="UQzExY35ptfeDzWS35jL-154" value="Появилось&amp;nbsp;&lt;div&gt;препятствие&lt;/div&gt;" style="edgeLabel;html=1;align=center;verticalAlign=middle;resizable=0;points=[];" connectable="0" vertex="1" parent="UQzExY35ptfeDzWS35jL-149">
          <mxGeometry x="0.0589" y="2" relative="1" as="geometry">
            <mxPoint as="offset" />
          </mxGeometry>
        </mxCell>
        <mxCell id="7xml_MiVRQEzrnD8rN6_-126" value="&lt;div&gt;&lt;font style=&quot;font-size: 9px;&quot;&gt;S8.4&lt;/font&gt;&lt;/div&gt;&lt;span style=&quot;font-size: 10px;&quot;&gt;Ворота&amp;nbsp;&lt;/span&gt;&lt;div&gt;&lt;span style=&quot;font-size: 10px;&quot;&gt;закрываются&lt;/span&gt;&lt;/div&gt;" style="ellipse;whiteSpace=wrap;html=1;aspect=fixed;" vertex="1" parent="1">
          <mxGeometry x="355" y="3400" width="70" height="70" as="geometry" />
        </mxCell>
        <mxCell id="7xml_MiVRQEzrnD8rN6_-140" value="" style="shape=flexArrow;endArrow=classic;html=1;rounded=0;fillColor=#009900;" edge="1" parent="1">
          <mxGeometry width="50" height="50" relative="1" as="geometry">
            <mxPoint x="355" y="3434.6000000000004" as="sourcePoint" />
            <mxPoint x="295" y="3434.6000000000004" as="targetPoint" />
          </mxGeometry>
        </mxCell>
        <mxCell id="7xml_MiVRQEzrnD8rN6_-155" value="&lt;font style=&quot;font-size: 9px;&quot;&gt;Ворота&lt;/font&gt;&lt;div&gt;&lt;font style=&quot;font-size: 9px;&quot;&gt;закрылись&lt;/font&gt;&lt;/div&gt;" style="text;html=1;align=center;verticalAlign=middle;whiteSpace=wrap;rounded=0;" vertex="1" parent="1">
          <mxGeometry x="285" y="3380" width="74" height="30" as="geometry" />
        </mxCell>
        <mxCell id="7xml_MiVRQEzrnD8rN6_-156" value="&lt;div&gt;&lt;font style=&quot;font-size: 9px;&quot;&gt;&lt;span style=&quot;font-family: Roboto, -apple-system, &amp;quot;apple color emoji&amp;quot;, BlinkMacSystemFont, &amp;quot;Segoe UI&amp;quot;, Roboto, Oxygen-Sans, Ubuntu, Cantarell, &amp;quot;Helvetica Neue&amp;quot;, sans-serif; font-size: 18px; white-space-collapse: preserve; background-color: rgb(255, 255, 255);&quot;&gt;Пояснения к блокам&lt;/span&gt;&lt;/font&gt;&lt;/div&gt;&lt;font style=&quot;font-size: 9px;&quot;&gt;&lt;div&gt;&lt;font style=&quot;font-size: 9px;&quot;&gt;&lt;br&gt;&lt;/font&gt;&lt;/div&gt;&lt;/font&gt;&lt;div style=&quot;&quot;&gt;&lt;font style=&quot;font-size: 9px;&quot;&gt;S8.0 - Ворота открываются&lt;/font&gt;&lt;div&gt;&lt;font style=&quot;font-size: 9px;&quot;&gt;Шаговой двигатель начинает открывать ворота&lt;/font&gt;&lt;/div&gt;&lt;div&gt;&lt;font style=&quot;font-size: 9px;&quot;&gt;&lt;br&gt;&lt;/font&gt;&lt;/div&gt;&lt;div&gt;&lt;font style=&quot;font-size: 9px;&quot;&gt;&lt;div style=&quot;font-size: 12px;&quot;&gt;&lt;font style=&quot;font-size: 9px;&quot;&gt;S8.1&lt;/font&gt;&amp;nbsp;-&amp;nbsp;&lt;span style=&quot;font-size: 9px; text-align: center; background-color: transparent; color: light-dark(rgb(0, 0, 0), rgb(255, 255, 255));&quot;&gt;Ожидание&amp;nbsp;&lt;/span&gt;&lt;span style=&quot;font-size: 9px; text-align: center; background-color: transparent; color: light-dark(rgb(0, 0, 0), rgb(255, 255, 255));&quot;&gt;обнаружения&amp;nbsp;&lt;/span&gt;&lt;span style=&quot;font-size: 9px; text-align: center; background-color: transparent; color: light-dark(rgb(0, 0, 0), rgb(255, 255, 255));&quot;&gt;автомобиля&lt;/span&gt;&lt;/div&gt;&lt;div style=&quot;font-size: 12px;&quot;&gt;&lt;span style=&quot;font-size: 9px; text-align: center; background-color: transparent; color: light-dark(rgb(0, 0, 0), rgb(255, 255, 255));&quot;&gt;Датчик сканирует пространство между воротами&lt;/span&gt;&lt;/div&gt;&lt;div style=&quot;font-size: 12px;&quot;&gt;&lt;span style=&quot;font-size: 9px; text-align: center; background-color: transparent; color: light-dark(rgb(0, 0, 0), rgb(255, 255, 255));&quot;&gt;&lt;br&gt;&lt;/span&gt;&lt;/div&gt;&lt;div style=&quot;font-size: 12px;&quot;&gt;&lt;div&gt;&lt;font style=&quot;font-size: 9px;&quot;&gt;s8.2 -&amp;nbsp;&lt;/font&gt;&lt;span style=&quot;font-size: 9px; background-color: transparent; color: light-dark(rgb(0, 0, 0), rgb(255, 255, 255));&quot;&gt;Ожидание&amp;nbsp;&lt;/span&gt;&lt;span style=&quot;font-size: 9px; background-color: transparent; color: light-dark(rgb(0, 0, 0), rgb(255, 255, 255));&quot;&gt;исчезновения&amp;nbsp;&lt;/span&gt;&lt;span style=&quot;font-size: 9px; background-color: transparent; color: light-dark(rgb(0, 0, 0), rgb(255, 255, 255));&quot;&gt;объекта&lt;/span&gt;&lt;/div&gt;&lt;div&gt;&lt;font style=&quot;font-size: 9px;&quot;&gt;Ожидание пока показания датчика не определят, что автомобиль проехал( показания датчика увеличатся)&lt;/font&gt;&lt;/div&gt;&lt;div&gt;&lt;font style=&quot;font-size: 9px;&quot;&gt;&lt;br&gt;&lt;/font&gt;&lt;/div&gt;&lt;div&gt;&lt;font style=&quot;font-size: 9px;&quot;&gt;&lt;div style=&quot;font-size: 12px;&quot;&gt;&lt;font style=&quot;font-size: 9px;&quot;&gt;S8.3 -&amp;nbsp;&lt;/font&gt;&lt;span style=&quot;font-size: 9px; background-color: transparent; color: light-dark(rgb(0, 0, 0), rgb(255, 255, 255));&quot;&gt;ожидание после проезда авто&lt;/span&gt;&lt;/div&gt;&lt;div style=&quot;font-size: 12px;&quot;&gt;&lt;font style=&quot;font-size: 9px;&quot;&gt;Ожидание 3 секунд для безопасности и удобства проезда&lt;/font&gt;&lt;/div&gt;&lt;div style=&quot;font-size: 12px;&quot;&gt;&lt;font style=&quot;font-size: 9px;&quot;&gt;&lt;br&gt;&lt;/font&gt;&lt;/div&gt;&lt;div style=&quot;font-size: 12px;&quot;&gt;&lt;font style=&quot;font-size: 9px;&quot;&gt;&lt;div&gt;&lt;div&gt;S8.4 -&amp;nbsp;Ворота закрываются&lt;/div&gt;&lt;div&gt;Шаговый двигатель начал закрывать ворота&lt;/div&gt;&lt;/div&gt;&lt;div&gt;&lt;br style=&quot;font-size: 12px;&quot;&gt;&lt;/div&gt;&lt;/font&gt;&lt;/div&gt;&lt;div style=&quot;font-size: 12px;&quot;&gt;&lt;br&gt;&lt;/div&gt;&lt;/font&gt;&lt;/div&gt;&lt;/div&gt;&lt;/font&gt;&lt;/div&gt;&lt;/div&gt;" style="text;html=1;align=left;verticalAlign=middle;whiteSpace=wrap;rounded=0;" vertex="1" parent="1">
          <mxGeometry x="20" y="3710" width="320" height="260" as="geometry" />
        </mxCell>
        <mxCell id="7xml_MiVRQEzrnD8rN6_-157" value="&lt;div&gt;&lt;span style=&quot;font-family: Roboto, -apple-system, &amp;quot;apple color emoji&amp;quot;, BlinkMacSystemFont, &amp;quot;Segoe UI&amp;quot;, Roboto, Oxygen-Sans, Ubuntu, Cantarell, &amp;quot;Helvetica Neue&amp;quot;, sans-serif; font-size: 18px; white-space-collapse: preserve; background-color: rgb(255, 255, 255);&quot;&gt;Пояснения к переходам&lt;/span&gt;&lt;/div&gt;&lt;div&gt;&lt;span style=&quot;font-family: Roboto, -apple-system, &amp;quot;apple color emoji&amp;quot;, BlinkMacSystemFont, &amp;quot;Segoe UI&amp;quot;, Roboto, Oxygen-Sans, Ubuntu, Cantarell, &amp;quot;Helvetica Neue&amp;quot;, sans-serif; font-size: 18px; white-space-collapse: preserve; background-color: rgb(255, 255, 255);&quot;&gt;&lt;br&gt;&lt;/span&gt;&lt;/div&gt;&lt;div&gt;&lt;span style=&quot;font-family: Roboto, -apple-system, &amp;quot;apple color emoji&amp;quot;, BlinkMacSystemFont, &amp;quot;Segoe UI&amp;quot;, Roboto, Oxygen-Sans, Ubuntu, Cantarell, &amp;quot;Helvetica Neue&amp;quot;, sans-serif; font-size: 18px; white-space-collapse: preserve; background-color: rgb(255, 255, 255);&quot;&gt;&lt;span style=&quot;font-family: Helvetica; font-size: 9px; white-space-collapse: collapse; background-color: rgb(251, 251, 251);&quot;&gt;S8.0 =&amp;gt; S8.1 - сработал концевик на открытие&lt;/span&gt;&lt;/span&gt;&lt;/div&gt;&lt;div&gt;&lt;span style=&quot;font-family: Roboto, -apple-system, &amp;quot;apple color emoji&amp;quot;, BlinkMacSystemFont, &amp;quot;Segoe UI&amp;quot;, Roboto, Oxygen-Sans, Ubuntu, Cantarell, &amp;quot;Helvetica Neue&amp;quot;, sans-serif; font-size: 18px; white-space-collapse: preserve; background-color: rgb(255, 255, 255);&quot;&gt;&lt;span style=&quot;font-family: Helvetica; font-size: 9px; white-space-collapse: collapse; background-color: rgb(251, 251, 251);&quot;&gt;&lt;br&gt;&lt;/span&gt;&lt;/span&gt;&lt;/div&gt;&lt;div&gt;&lt;span style=&quot;font-family: Roboto, -apple-system, &amp;quot;apple color emoji&amp;quot;, BlinkMacSystemFont, &amp;quot;Segoe UI&amp;quot;, Roboto, Oxygen-Sans, Ubuntu, Cantarell, &amp;quot;Helvetica Neue&amp;quot;, sans-serif; font-size: 18px; white-space-collapse: preserve; background-color: rgb(255, 255, 255);&quot;&gt;&lt;span style=&quot;font-family: Helvetica; font-size: 9px; white-space-collapse: collapse; background-color: rgb(251, 251, 251);&quot;&gt;&lt;div style=&quot;font-size: 12px;&quot;&gt;&lt;font style=&quot;font-size: 9px;&quot;&gt;S8.1 =&amp;gt; S8.2 датчик обнаружил автомобиль&lt;/font&gt;&lt;/div&gt;&lt;div style=&quot;font-size: 12px;&quot;&gt;&lt;font style=&quot;font-size: 9px;&quot;&gt;&lt;br&gt;&lt;/font&gt;&lt;/div&gt;&lt;div style=&quot;font-size: 12px;&quot;&gt;&lt;font style=&quot;font-size: 9px;&quot;&gt;S8.2 =&amp;gt; S8.3&amp;nbsp;&lt;span style=&quot;color: light-dark(rgb(0, 0, 0), rgb(255, 255, 255)); background-color: transparent;&quot;&gt;датчик определил исчезновения объекта&lt;/span&gt;&lt;/font&gt;&lt;/div&gt;&lt;div style=&quot;font-size: 12px;&quot;&gt;&lt;font style=&quot;font-size: 9px;&quot;&gt;&lt;span style=&quot;color: light-dark(rgb(0, 0, 0), rgb(255, 255, 255)); background-color: transparent;&quot;&gt;&lt;br&gt;&lt;/span&gt;&lt;/font&gt;&lt;/div&gt;&lt;div style=&quot;font-size: 12px;&quot;&gt;&lt;font style=&quot;font-size: 9px;&quot;&gt;S8.3 =&amp;gt; S8.4&amp;nbsp;&lt;span style=&quot;color: light-dark(rgb(0, 0, 0), rgb(255, 255, 255)); background-color: transparent;&quot;&gt;Прошло заданное количество времени (3 секунды) после проезда автомобиля&lt;/span&gt;&lt;span style=&quot;color: light-dark(rgb(0, 0, 0), rgb(255, 255, 255)); background-color: transparent;&quot;&gt;&lt;/span&gt;&lt;/font&gt;&lt;/div&gt;&lt;div&gt;&lt;font style=&quot;font-size: 9px;&quot;&gt;&lt;br&gt;&lt;/font&gt;&lt;/div&gt;&lt;div&gt;&lt;font style=&quot;font-size: 9px;&quot;&gt;&lt;div style=&quot;font-size: 12px;&quot;&gt;&lt;font style=&quot;font-size: 9px;&quot;&gt;S8.4 =&amp;gt; S8.2 - датчик вновь зафиксировал автомобиль&lt;/font&gt;&lt;/div&gt;&lt;div style=&quot;font-size: 12px;&quot;&gt;&lt;font style=&quot;font-size: 9px;&quot;&gt;Ворота остановились на время проезда автомобиля&lt;/font&gt;&lt;/div&gt;&lt;div style=&quot;font-size: 12px;&quot;&gt;&lt;font style=&quot;font-size: 9px;&quot;&gt;&lt;br&gt;&lt;/font&gt;&lt;/div&gt;&lt;div style=&quot;font-size: 12px;&quot;&gt;&lt;font style=&quot;font-size: 9px;&quot;&gt;S8.4 =&amp;gt; сработал концевик на закрытие ворот&lt;/font&gt;&lt;/div&gt;&lt;/font&gt;&lt;/div&gt;&lt;/span&gt;&lt;/span&gt;&lt;/div&gt;&lt;div&gt;&lt;span style=&quot;font-family: Roboto, -apple-system, &amp;quot;apple color emoji&amp;quot;, BlinkMacSystemFont, &amp;quot;Segoe UI&amp;quot;, Roboto, Oxygen-Sans, Ubuntu, Cantarell, &amp;quot;Helvetica Neue&amp;quot;, sans-serif; font-size: 18px; white-space-collapse: preserve; background-color: rgb(255, 255, 255);&quot;&gt;&lt;br&gt;&lt;/span&gt;&lt;/div&gt;&lt;div&gt;&lt;span style=&quot;font-family: Roboto, -apple-system, &amp;quot;apple color emoji&amp;quot;, BlinkMacSystemFont, &amp;quot;Segoe UI&amp;quot;, Roboto, Oxygen-Sans, Ubuntu, Cantarell, &amp;quot;Helvetica Neue&amp;quot;, sans-serif; font-size: 18px; white-space-collapse: preserve; background-color: rgb(255, 255, 255);&quot;&gt;&lt;br&gt;&lt;/span&gt;&lt;/div&gt;" style="text;html=1;align=left;verticalAlign=middle;whiteSpace=wrap;rounded=0;" vertex="1" parent="1">
          <mxGeometry x="382" y="3702" width="398" height="270" as="geometry" />
        </mxCell>
        <mxCell id="UQzExY35ptfeDzWS35jL-1" style="edgeStyle=orthogonalEdgeStyle;rounded=0;orthogonalLoop=1;jettySize=auto;html=1;" edge="1" parent="1" source="UQzExY35ptfeDzWS35jL-3" target="UQzExY35ptfeDzWS35jL-7">
          <mxGeometry relative="1" as="geometry" />
        </mxCell>
        <mxCell id="UQzExY35ptfeDzWS35jL-2" value="&lt;font style=&quot;font-size: 9px;&quot;&gt;Калитка&lt;/font&gt;&lt;div&gt;&lt;font style=&quot;font-size: 9px;&quot;&gt;&lt;/font&gt;&lt;font style=&quot;font-size: 9px;&quot;&gt;отперта&lt;/font&gt;&lt;/div&gt;" style="edgeLabel;html=1;align=center;verticalAlign=middle;resizable=0;points=[];" connectable="0" vertex="1" parent="UQzExY35ptfeDzWS35jL-1">
          <mxGeometry x="-0.0959" y="1" relative="1" as="geometry">
            <mxPoint as="offset" />
          </mxGeometry>
        </mxCell>
        <mxCell id="UQzExY35ptfeDzWS35jL-3" value="&lt;font style=&quot;font-size: 10px;&quot;&gt;S5.0&lt;/font&gt;&lt;div&gt;&lt;font style=&quot;font-size: 9px;&quot;&gt;Открытие солиноидов калитки&lt;/font&gt;&lt;/div&gt;" style="ellipse;whiteSpace=wrap;html=1;aspect=fixed;" vertex="1" parent="1">
          <mxGeometry x="153.5" y="1920" width="70" height="70" as="geometry" />
        </mxCell>
        <mxCell id="UQzExY35ptfeDzWS35jL-4" value="" style="shape=flexArrow;endArrow=classic;html=1;rounded=0;fillColor=#009900;" edge="1" parent="1">
          <mxGeometry width="50" height="50" relative="1" as="geometry">
            <mxPoint x="83.5" y="1954.4700000000003" as="sourcePoint" />
            <mxPoint x="153.5" y="1954.4700000000003" as="targetPoint" />
          </mxGeometry>
        </mxCell>
        <mxCell id="UQzExY35ptfeDzWS35jL-5" style="edgeStyle=orthogonalEdgeStyle;rounded=0;orthogonalLoop=1;jettySize=auto;html=1;" edge="1" parent="1" source="UQzExY35ptfeDzWS35jL-7" target="UQzExY35ptfeDzWS35jL-12">
          <mxGeometry relative="1" as="geometry" />
        </mxCell>
        <mxCell id="UQzExY35ptfeDzWS35jL-6" value="&lt;font style=&quot;font-size: 9px;&quot;&gt;Калитка&amp;nbsp;&lt;/font&gt;&lt;div&gt;&lt;font style=&quot;font-size: 9px;&quot;&gt;открылась&lt;/font&gt;&lt;/div&gt;" style="edgeLabel;html=1;align=center;verticalAlign=middle;resizable=0;points=[];" connectable="0" vertex="1" parent="UQzExY35ptfeDzWS35jL-5">
          <mxGeometry x="-0.0162" y="-2" relative="1" as="geometry">
            <mxPoint as="offset" />
          </mxGeometry>
        </mxCell>
        <mxCell id="UQzExY35ptfeDzWS35jL-7" value="&lt;font style=&quot;font-size: 10px;&quot;&gt;S5.1&lt;/font&gt;&lt;div&gt;&lt;font style=&quot;font-size: 9px;&quot;&gt;Открытие калитки&lt;/font&gt;&lt;/div&gt;" style="ellipse;whiteSpace=wrap;html=1;aspect=fixed;" vertex="1" parent="1">
          <mxGeometry x="333.5" y="1920" width="70" height="70" as="geometry" />
        </mxCell>
        <mxCell id="UQzExY35ptfeDzWS35jL-12" value="&lt;font style=&quot;font-size: 10px;&quot;&gt;S5.2&lt;/font&gt;&lt;div&gt;&lt;font style=&quot;font-size: 9px;&quot;&gt;Ожидание обнаружения пешехода&lt;/font&gt;&lt;/div&gt;" style="ellipse;whiteSpace=wrap;html=1;aspect=fixed;" vertex="1" parent="1">
          <mxGeometry x="493.5" y="1920" width="70" height="70" as="geometry" />
        </mxCell>
        <mxCell id="UQzExY35ptfeDzWS35jL-98" style="edgeStyle=orthogonalEdgeStyle;rounded=0;orthogonalLoop=1;jettySize=auto;html=1;entryX=1;entryY=0.5;entryDx=0;entryDy=0;" edge="1" parent="1" source="UQzExY35ptfeDzWS35jL-19" target="UQzExY35ptfeDzWS35jL-20">
          <mxGeometry relative="1" as="geometry" />
        </mxCell>
        <mxCell id="UQzExY35ptfeDzWS35jL-115" value="&lt;span style=&quot;font-size: 9px;&quot;&gt;Сработал&amp;nbsp;&lt;/span&gt;&lt;br style=&quot;font-size: 9px;&quot;&gt;&lt;span style=&quot;font-size: 9px;&quot;&gt;концевик на&amp;nbsp;&lt;/span&gt;&lt;br style=&quot;font-size: 9px;&quot;&gt;&lt;span style=&quot;font-size: 9px;&quot;&gt;закрытие калитки&lt;/span&gt;" style="edgeLabel;html=1;align=center;verticalAlign=middle;resizable=0;points=[];" connectable="0" vertex="1" parent="UQzExY35ptfeDzWS35jL-98">
          <mxGeometry x="-0.043" y="-1" relative="1" as="geometry">
            <mxPoint as="offset" />
          </mxGeometry>
        </mxCell>
        <mxCell id="UQzExY35ptfeDzWS35jL-19" value="&lt;font style=&quot;font-size: 10px;&quot;&gt;S5.5&lt;/font&gt;&lt;div&gt;&lt;font style=&quot;font-size: 9px;&quot;&gt;Закрытие&lt;/font&gt;&lt;/div&gt;&lt;div&gt;&lt;font style=&quot;font-size: 9px;&quot;&gt;калитки&lt;/font&gt;&lt;/div&gt;" style="ellipse;whiteSpace=wrap;html=1;aspect=fixed;" vertex="1" parent="1">
          <mxGeometry x="375" y="2190" width="70" height="70" as="geometry" />
        </mxCell>
        <mxCell id="UQzExY35ptfeDzWS35jL-20" value="&lt;font style=&quot;font-size: 10px;&quot;&gt;S5.6&lt;/font&gt;&lt;div&gt;&lt;font style=&quot;font-size: 9px;&quot;&gt;Закрытие&lt;/font&gt;&amp;nbsp;&lt;/div&gt;&lt;div&gt;&lt;font style=&quot;font-size: 9px;&quot;&gt;солиноидов&lt;/font&gt;&lt;/div&gt;" style="ellipse;whiteSpace=wrap;html=1;aspect=fixed;" vertex="1" parent="1">
          <mxGeometry x="213" y="2180" width="70" height="70" as="geometry" />
        </mxCell>
        <mxCell id="UQzExY35ptfeDzWS35jL-21" value="" style="shape=flexArrow;endArrow=classic;html=1;rounded=0;fillColor=#009900;" edge="1" parent="1">
          <mxGeometry width="50" height="50" relative="1" as="geometry">
            <mxPoint x="213" y="2214.63" as="sourcePoint" />
            <mxPoint x="153" y="2214.63" as="targetPoint" />
          </mxGeometry>
        </mxCell>
        <mxCell id="UQzExY35ptfeDzWS35jL-40" value="&lt;font style=&quot;font-size: 10px;&quot;&gt;S5.3&lt;/font&gt;&lt;div&gt;&lt;font style=&quot;font-size: 9px;&quot;&gt;Ожидание прохода пешехода&lt;/font&gt;&lt;/div&gt;" style="ellipse;whiteSpace=wrap;html=1;aspect=fixed;" vertex="1" parent="1">
          <mxGeometry x="554" y="2100" width="70" height="70" as="geometry" />
        </mxCell>
        <mxCell id="UQzExY35ptfeDzWS35jL-43" value="&lt;font style=&quot;font-size: 10px;&quot;&gt;S5.4&lt;/font&gt;&lt;div&gt;&lt;font style=&quot;font-size: 9px;&quot;&gt;Ожидание после прохода пешехода&lt;/font&gt;&lt;/div&gt;" style="ellipse;whiteSpace=wrap;html=1;aspect=fixed;" vertex="1" parent="1">
          <mxGeometry x="554" y="2290" width="70" height="70" as="geometry" />
        </mxCell>
        <mxCell id="UQzExY35ptfeDzWS35jL-96" value="" style="curved=1;endArrow=classic;html=1;rounded=0;exitX=1;exitY=1;exitDx=0;exitDy=0;entryX=0.5;entryY=0;entryDx=0;entryDy=0;" edge="1" parent="1" source="UQzExY35ptfeDzWS35jL-12" target="UQzExY35ptfeDzWS35jL-40">
          <mxGeometry width="50" height="50" relative="1" as="geometry">
            <mxPoint x="589.5" y="2060" as="sourcePoint" />
            <mxPoint x="639.5" y="2010" as="targetPoint" />
            <Array as="points">
              <mxPoint x="589.5" y="2040" />
            </Array>
          </mxGeometry>
        </mxCell>
        <mxCell id="UQzExY35ptfeDzWS35jL-107" value="&lt;font style=&quot;font-size: 9px;&quot;&gt;Пешеход&lt;/font&gt;&lt;div&gt;&amp;nbsp;&lt;font style=&quot;font-size: 9px;&quot;&gt;обнаружен&lt;/font&gt;&lt;/div&gt;" style="edgeLabel;html=1;align=center;verticalAlign=middle;resizable=0;points=[];" connectable="0" vertex="1" parent="UQzExY35ptfeDzWS35jL-96">
          <mxGeometry x="-0.0355" y="-4" relative="1" as="geometry">
            <mxPoint as="offset" />
          </mxGeometry>
        </mxCell>
        <mxCell id="UQzExY35ptfeDzWS35jL-102" value="" style="curved=1;endArrow=classic;html=1;rounded=0;exitX=0;exitY=1;exitDx=0;exitDy=0;entryX=0.5;entryY=0;entryDx=0;entryDy=0;" edge="1" parent="1" source="UQzExY35ptfeDzWS35jL-12" target="UQzExY35ptfeDzWS35jL-19">
          <mxGeometry width="50" height="50" relative="1" as="geometry">
            <mxPoint x="469.5" y="2090" as="sourcePoint" />
            <mxPoint x="519.5" y="2040" as="targetPoint" />
            <Array as="points">
              <mxPoint x="429.5" y="2060" />
            </Array>
          </mxGeometry>
        </mxCell>
        <mxCell id="UQzExY35ptfeDzWS35jL-109" value="&lt;span style=&quot;font-size: 9px;&quot;&gt;timing&lt;/span&gt;" style="edgeLabel;html=1;align=center;verticalAlign=middle;resizable=0;points=[];" connectable="0" vertex="1" parent="UQzExY35ptfeDzWS35jL-102">
          <mxGeometry x="-0.0753" relative="1" as="geometry">
            <mxPoint as="offset" />
          </mxGeometry>
        </mxCell>
        <mxCell id="UQzExY35ptfeDzWS35jL-103" value="" style="curved=1;endArrow=classic;html=1;rounded=0;entryX=1;entryY=1;entryDx=0;entryDy=0;exitX=0;exitY=0.5;exitDx=0;exitDy=0;" edge="1" parent="1" source="UQzExY35ptfeDzWS35jL-43" target="UQzExY35ptfeDzWS35jL-19">
          <mxGeometry width="50" height="50" relative="1" as="geometry">
            <mxPoint x="444" y="2350" as="sourcePoint" />
            <mxPoint x="494" y="2300" as="targetPoint" />
            <Array as="points">
              <mxPoint x="474" y="2310" />
            </Array>
          </mxGeometry>
        </mxCell>
        <mxCell id="UQzExY35ptfeDzWS35jL-113" value="&lt;font size=&quot;1&quot;&gt;timing&lt;/font&gt;" style="edgeLabel;html=1;align=center;verticalAlign=middle;resizable=0;points=[];" connectable="0" vertex="1" parent="UQzExY35ptfeDzWS35jL-103">
          <mxGeometry x="-0.0865" y="-10" relative="1" as="geometry">
            <mxPoint as="offset" />
          </mxGeometry>
        </mxCell>
        <mxCell id="UQzExY35ptfeDzWS35jL-104" value="" style="curved=1;endArrow=classic;html=1;rounded=0;exitX=1;exitY=0;exitDx=0;exitDy=0;entryX=0;entryY=0.5;entryDx=0;entryDy=0;" edge="1" parent="1" source="UQzExY35ptfeDzWS35jL-19" target="UQzExY35ptfeDzWS35jL-40">
          <mxGeometry width="50" height="50" relative="1" as="geometry">
            <mxPoint x="454" y="2160" as="sourcePoint" />
            <mxPoint x="504" y="2110" as="targetPoint" />
            <Array as="points">
              <mxPoint x="474" y="2140" />
            </Array>
          </mxGeometry>
        </mxCell>
        <mxCell id="UQzExY35ptfeDzWS35jL-114" value="&lt;font style=&quot;font-size: 9px;&quot;&gt;Появилось&amp;nbsp;&lt;/font&gt;&lt;div style=&quot;font-size: 12px;&quot;&gt;&lt;font style=&quot;font-size: 9px;&quot;&gt;препятствие&lt;/font&gt;&lt;/div&gt;" style="edgeLabel;html=1;align=center;verticalAlign=middle;resizable=0;points=[];" connectable="0" vertex="1" parent="UQzExY35ptfeDzWS35jL-104">
          <mxGeometry x="-0.1655" y="-13" relative="1" as="geometry">
            <mxPoint as="offset" />
          </mxGeometry>
        </mxCell>
        <mxCell id="UQzExY35ptfeDzWS35jL-105" value="" style="curved=1;endArrow=classic;html=1;rounded=0;exitX=0;exitY=0;exitDx=0;exitDy=0;entryX=0;entryY=1;entryDx=0;entryDy=0;" edge="1" parent="1" source="UQzExY35ptfeDzWS35jL-43" target="UQzExY35ptfeDzWS35jL-40">
          <mxGeometry width="50" height="50" relative="1" as="geometry">
            <mxPoint x="524" y="2260" as="sourcePoint" />
            <mxPoint x="574" y="2210" as="targetPoint" />
            <Array as="points">
              <mxPoint x="544" y="2230" />
            </Array>
          </mxGeometry>
        </mxCell>
        <mxCell id="UQzExY35ptfeDzWS35jL-111" value="&lt;font style=&quot;font-size: 9px;&quot;&gt;Обнаружен&amp;nbsp;&lt;/font&gt;&lt;div&gt;&lt;font style=&quot;font-size: 9px;&quot;&gt;следующий&lt;/font&gt;&lt;/div&gt;&lt;div&gt;&lt;font style=&quot;font-size: 9px;&quot;&gt;&amp;nbsp;пешеход&lt;/font&gt;&lt;/div&gt;" style="edgeLabel;html=1;align=center;verticalAlign=middle;resizable=0;points=[];" connectable="0" vertex="1" parent="UQzExY35ptfeDzWS35jL-105">
          <mxGeometry x="-0.0768" y="-7" relative="1" as="geometry">
            <mxPoint as="offset" />
          </mxGeometry>
        </mxCell>
        <mxCell id="UQzExY35ptfeDzWS35jL-106" value="" style="curved=1;endArrow=classic;html=1;rounded=0;exitX=1;exitY=1;exitDx=0;exitDy=0;entryX=1;entryY=0;entryDx=0;entryDy=0;" edge="1" parent="1" source="UQzExY35ptfeDzWS35jL-40" target="UQzExY35ptfeDzWS35jL-43">
          <mxGeometry width="50" height="50" relative="1" as="geometry">
            <mxPoint x="634" y="2260" as="sourcePoint" />
            <mxPoint x="684" y="2210" as="targetPoint" />
            <Array as="points">
              <mxPoint x="634" y="2230" />
            </Array>
          </mxGeometry>
        </mxCell>
        <mxCell id="UQzExY35ptfeDzWS35jL-110" value="&lt;font style=&quot;font-size: 9px;&quot;&gt;Пешеход&lt;/font&gt;&lt;div&gt;&amp;nbsp;&lt;font style=&quot;font-size: 9px;&quot;&gt;исчез&lt;/font&gt;&lt;/div&gt;" style="edgeLabel;html=1;align=center;verticalAlign=middle;resizable=0;points=[];" connectable="0" vertex="1" parent="UQzExY35ptfeDzWS35jL-106">
          <mxGeometry x="-0.1144" y="-9" relative="1" as="geometry">
            <mxPoint as="offset" />
          </mxGeometry>
        </mxCell>
        <mxCell id="UQzExY35ptfeDzWS35jL-144" value="" style="curved=1;endArrow=classic;html=1;rounded=0;exitX=0.5;exitY=1;exitDx=0;exitDy=0;entryX=1;entryY=0.5;entryDx=0;entryDy=0;" edge="1" parent="1" source="7xml_MiVRQEzrnD8rN6_-124" target="7xml_MiVRQEzrnD8rN6_-125">
          <mxGeometry width="50" height="50" relative="1" as="geometry">
            <mxPoint x="602" y="3550" as="sourcePoint" />
            <mxPoint x="572" y="3570" as="targetPoint" />
            <Array as="points">
              <mxPoint x="602" y="3520" />
            </Array>
          </mxGeometry>
        </mxCell>
        <mxCell id="UQzExY35ptfeDzWS35jL-151" value="Автомобиль&lt;div&gt;&amp;nbsp;проехал&lt;/div&gt;" style="edgeLabel;html=1;align=center;verticalAlign=middle;resizable=0;points=[];" connectable="0" vertex="1" parent="UQzExY35ptfeDzWS35jL-144">
          <mxGeometry x="-0.0869" y="-9" relative="1" as="geometry">
            <mxPoint as="offset" />
          </mxGeometry>
        </mxCell>
        <mxCell id="UQzExY35ptfeDzWS35jL-145" value="" style="curved=1;endArrow=classic;html=1;rounded=0;exitX=0;exitY=0.5;exitDx=0;exitDy=0;entryX=0.5;entryY=1;entryDx=0;entryDy=0;" edge="1" parent="1" source="7xml_MiVRQEzrnD8rN6_-125" target="7xml_MiVRQEzrnD8rN6_-126">
          <mxGeometry width="50" height="50" relative="1" as="geometry">
            <mxPoint x="462" y="3520" as="sourcePoint" />
            <mxPoint x="512" y="3470" as="targetPoint" />
            <Array as="points">
              <mxPoint x="412" y="3530" />
            </Array>
          </mxGeometry>
        </mxCell>
        <mxCell id="UQzExY35ptfeDzWS35jL-152" value="timeout" style="edgeLabel;html=1;align=center;verticalAlign=middle;resizable=0;points=[];" connectable="0" vertex="1" parent="UQzExY35ptfeDzWS35jL-145">
          <mxGeometry x="-0.171" y="-6" relative="1" as="geometry">
            <mxPoint as="offset" />
          </mxGeometry>
        </mxCell>
        <mxCell id="UQzExY35ptfeDzWS35jL-147" value="" style="curved=1;endArrow=classic;html=1;rounded=0;exitX=0;exitY=1;exitDx=0;exitDy=0;entryX=0.5;entryY=0;entryDx=0;entryDy=0;" edge="1" parent="1" source="7xml_MiVRQEzrnD8rN6_-123" target="7xml_MiVRQEzrnD8rN6_-126">
          <mxGeometry width="50" height="50" relative="1" as="geometry">
            <mxPoint x="472" y="3410" as="sourcePoint" />
            <mxPoint x="522" y="3360" as="targetPoint" />
            <Array as="points">
              <mxPoint x="422" y="3320" />
            </Array>
          </mxGeometry>
        </mxCell>
        <mxCell id="UQzExY35ptfeDzWS35jL-153" value="timeout" style="edgeLabel;html=1;align=center;verticalAlign=middle;resizable=0;points=[];" connectable="0" vertex="1" parent="UQzExY35ptfeDzWS35jL-147">
          <mxGeometry x="0.045" y="12" relative="1" as="geometry">
            <mxPoint as="offset" />
          </mxGeometry>
        </mxCell>
        <mxCell id="UQzExY35ptfeDzWS35jL-148" value="" style="curved=1;endArrow=classic;html=1;rounded=0;exitX=1;exitY=1;exitDx=0;exitDy=0;entryX=0.5;entryY=0;entryDx=0;entryDy=0;" edge="1" parent="1" source="7xml_MiVRQEzrnD8rN6_-123" target="7xml_MiVRQEzrnD8rN6_-124">
          <mxGeometry width="50" height="50" relative="1" as="geometry">
            <mxPoint x="602" y="3360" as="sourcePoint" />
            <mxPoint x="712" y="3320" as="targetPoint" />
            <Array as="points">
              <mxPoint x="592" y="3340" />
            </Array>
          </mxGeometry>
        </mxCell>
        <mxCell id="UQzExY35ptfeDzWS35jL-150" value="Автомобиль&lt;br&gt;&lt;div&gt;обнаружен&lt;/div&gt;" style="edgeLabel;html=1;align=center;verticalAlign=middle;resizable=0;points=[];" connectable="0" vertex="1" parent="UQzExY35ptfeDzWS35jL-148">
          <mxGeometry x="-0.0813" y="-7" relative="1" as="geometry">
            <mxPoint as="offset" />
          </mxGeometry>
        </mxCell>
        <mxCell id="UQzExY35ptfeDzWS35jL-155" value="&lt;div&gt;&lt;font style=&quot;font-size: 9px;&quot;&gt;&lt;span style=&quot;box-sizing: inherit; font-family: Roboto, -apple-system, &amp;quot;apple color emoji&amp;quot;, BlinkMacSystemFont, &amp;quot;Segoe UI&amp;quot;, Roboto, Oxygen-Sans, Ubuntu, Cantarell, &amp;quot;Helvetica Neue&amp;quot;, sans-serif; white-space-collapse: preserve; background-color: rgb(255, 255, 255);&quot;&gt;&lt;br&gt;&lt;/span&gt;&lt;/font&gt;&lt;/div&gt;&lt;font style=&quot;&quot;&gt;&lt;span style=&quot;box-sizing: inherit; font-family: Roboto, -apple-system, &amp;quot;apple color emoji&amp;quot;, BlinkMacSystemFont, &amp;quot;Segoe UI&amp;quot;, Roboto, Oxygen-Sans, Ubuntu, Cantarell, &amp;quot;Helvetica Neue&amp;quot;, sans-serif; white-space-collapse: preserve; background-color: rgb(255, 255, 255);&quot;&gt;&lt;div style=&quot;&quot;&gt;&lt;font style=&quot;&quot;&gt;&lt;span style=&quot;box-sizing: inherit; font-family: Roboto, -apple-system, &amp;quot;apple color emoji&amp;quot;, BlinkMacSystemFont, &amp;quot;Segoe UI&amp;quot;, Roboto, Oxygen-Sans, Ubuntu, Cantarell, &amp;quot;Helvetica Neue&amp;quot;, sans-serif; white-space-collapse: preserve; background-color: rgb(255, 255, 255);&quot;&gt;&lt;span style=&quot;font-size: 9px; white-space: pre;&quot;&gt;&#x9;&lt;/span&gt;&lt;span style=&quot;font-size: 9px; white-space: pre;&quot;&gt;&#x9;&lt;/span&gt;&lt;span style=&quot;font-size: 9px; white-space: pre;&quot;&gt;&#x9;&lt;/span&gt;       &lt;font style=&quot;font-size: 18px;&quot;&gt;Пояснения к блокам&lt;br&gt;&lt;/font&gt;&lt;/span&gt;&lt;/font&gt;&lt;/div&gt;&lt;div style=&quot;&quot;&gt;&lt;font style=&quot;&quot;&gt;&lt;span style=&quot;box-sizing: inherit; font-family: Roboto, -apple-system, &amp;quot;apple color emoji&amp;quot;, BlinkMacSystemFont, &amp;quot;Segoe UI&amp;quot;, Roboto, Oxygen-Sans, Ubuntu, Cantarell, &amp;quot;Helvetica Neue&amp;quot;, sans-serif; white-space-collapse: preserve; background-color: rgb(255, 255, 255);&quot;&gt;&lt;font style=&quot;font-size: 18px;&quot;&gt;&lt;br&gt;&lt;/font&gt;&lt;/span&gt;&lt;/font&gt;&lt;/div&gt;&lt;div style=&quot;&quot;&gt;&lt;font style=&quot;&quot;&gt;&lt;span style=&quot;box-sizing: inherit; font-family: Roboto, -apple-system, &amp;quot;apple color emoji&amp;quot;, BlinkMacSystemFont, &amp;quot;Segoe UI&amp;quot;, Roboto, Oxygen-Sans, Ubuntu, Cantarell, &amp;quot;Helvetica Neue&amp;quot;, sans-serif; white-space-collapse: preserve; background-color: rgb(255, 255, 255);&quot;&gt;&lt;font style=&quot;font-size: 18px;&quot;&gt;&lt;font style=&quot;font-family: Helvetica; white-space-collapse: collapse; background-color: rgb(251, 251, 251); font-size: 9px;&quot;&gt;&lt;span style=&quot;box-sizing: inherit; font-family: Roboto, -apple-system, &amp;quot;apple color emoji&amp;quot;, BlinkMacSystemFont, &amp;quot;Segoe UI&amp;quot;, Roboto, Oxygen-Sans, Ubuntu, Cantarell, &amp;quot;Helvetica Neue&amp;quot;, sans-serif; white-space-collapse: preserve; background-color: rgb(255, 255, 255);&quot;&gt;S5.0 - Активация запирающего механизма калитки&lt;/span&gt;&lt;span style=&quot;font-family: Roboto, -apple-system, &amp;quot;apple color emoji&amp;quot;, BlinkMacSystemFont, &amp;quot;Segoe UI&amp;quot;, Roboto, Oxygen-Sans, Ubuntu, Cantarell, &amp;quot;Helvetica Neue&amp;quot;, sans-serif; white-space-collapse: preserve; background-color: rgb(255, 255, 255);&quot;&gt;  &lt;br&gt;Звуковой сигнал подтверждает &quot;доступ разрешён&quot;.  &lt;br&gt;На дисплее ворот отображается сообщение &quot;Подождите, пока калитка закроется&quot;.  &lt;br&gt;Запускается механизм открытия соленоида, ожидая завершения процесса.&lt;/span&gt;&lt;/font&gt;&lt;span style=&quot;font-size: 16px; background-color: rgb(255, 255, 255);&quot;&gt;&lt;br&gt;&lt;/span&gt;&lt;/font&gt;&lt;/span&gt;&lt;/font&gt;&lt;/div&gt;&lt;div style=&quot;&quot;&gt;&lt;font style=&quot;&quot;&gt;&lt;span style=&quot;box-sizing: inherit; font-family: Roboto, -apple-system, &amp;quot;apple color emoji&amp;quot;, BlinkMacSystemFont, &amp;quot;Segoe UI&amp;quot;, Roboto, Oxygen-Sans, Ubuntu, Cantarell, &amp;quot;Helvetica Neue&amp;quot;, sans-serif; white-space-collapse: preserve; background-color: rgb(255, 255, 255);&quot;&gt;&lt;font style=&quot;font-size: 18px;&quot;&gt;&lt;font style=&quot;font-family: Helvetica; white-space-collapse: collapse; background-color: rgb(251, 251, 251); font-size: 9px;&quot;&gt;&lt;span style=&quot;font-family: Roboto, -apple-system, &amp;quot;apple color emoji&amp;quot;, BlinkMacSystemFont, &amp;quot;Segoe UI&amp;quot;, Roboto, Oxygen-Sans, Ubuntu, Cantarell, &amp;quot;Helvetica Neue&amp;quot;, sans-serif; white-space-collapse: preserve; background-color: rgb(255, 255, 255);&quot;&gt;&lt;br&gt;&lt;/span&gt;&lt;/font&gt;&lt;/font&gt;&lt;/span&gt;&lt;/font&gt;&lt;/div&gt;&lt;div style=&quot;&quot;&gt;&lt;font style=&quot;&quot;&gt;&lt;span style=&quot;box-sizing: inherit; font-family: Roboto, -apple-system, &amp;quot;apple color emoji&amp;quot;, BlinkMacSystemFont, &amp;quot;Segoe UI&amp;quot;, Roboto, Oxygen-Sans, Ubuntu, Cantarell, &amp;quot;Helvetica Neue&amp;quot;, sans-serif; white-space-collapse: preserve; background-color: rgb(255, 255, 255);&quot;&gt;&lt;font style=&quot;font-size: 18px;&quot;&gt;&lt;font style=&quot;font-family: Helvetica; white-space-collapse: collapse; background-color: rgb(251, 251, 251); font-size: 9px;&quot;&gt;&lt;span style=&quot;font-family: Roboto, -apple-system, &amp;quot;apple color emoji&amp;quot;, BlinkMacSystemFont, &amp;quot;Segoe UI&amp;quot;, Roboto, Oxygen-Sans, Ubuntu, Cantarell, &amp;quot;Helvetica Neue&amp;quot;, sans-serif; white-space-collapse: preserve; background-color: rgb(255, 255, 255);&quot;&gt;&lt;span style=&quot;box-sizing: inherit; background-color: rgb(255, 255, 255);&quot;&gt;S5.1 - Открытие калитки&lt;/span&gt;&lt;span style=&quot;background-color: rgb(255, 255, 255);&quot;&gt;  &lt;br&gt;Сервопривод медленно открывает калитку.&lt;/span&gt;&lt;/span&gt;&lt;/font&gt;&lt;/font&gt;&lt;/span&gt;&lt;/font&gt;&lt;/div&gt;&lt;div style=&quot;&quot;&gt;&lt;font style=&quot;&quot;&gt;&lt;span style=&quot;box-sizing: inherit; font-family: Roboto, -apple-system, &amp;quot;apple color emoji&amp;quot;, BlinkMacSystemFont, &amp;quot;Segoe UI&amp;quot;, Roboto, Oxygen-Sans, Ubuntu, Cantarell, &amp;quot;Helvetica Neue&amp;quot;, sans-serif; white-space-collapse: preserve; background-color: rgb(255, 255, 255);&quot;&gt;&lt;font style=&quot;font-size: 18px;&quot;&gt;&lt;font style=&quot;font-family: Helvetica; white-space-collapse: collapse; background-color: rgb(251, 251, 251); font-size: 9px;&quot;&gt;&lt;span style=&quot;font-family: Roboto, -apple-system, &amp;quot;apple color emoji&amp;quot;, BlinkMacSystemFont, &amp;quot;Segoe UI&amp;quot;, Roboto, Oxygen-Sans, Ubuntu, Cantarell, &amp;quot;Helvetica Neue&amp;quot;, sans-serif; white-space-collapse: preserve; background-color: rgb(255, 255, 255);&quot;&gt;&lt;span style=&quot;background-color: rgb(255, 255, 255);&quot;&gt;&lt;br&gt;&lt;/span&gt;&lt;/span&gt;&lt;/font&gt;&lt;/font&gt;&lt;/span&gt;&lt;/font&gt;&lt;/div&gt;&lt;div style=&quot;&quot;&gt;&lt;font style=&quot;&quot;&gt;&lt;span style=&quot;box-sizing: inherit; font-family: Roboto, -apple-system, &amp;quot;apple color emoji&amp;quot;, BlinkMacSystemFont, &amp;quot;Segoe UI&amp;quot;, Roboto, Oxygen-Sans, Ubuntu, Cantarell, &amp;quot;Helvetica Neue&amp;quot;, sans-serif; white-space-collapse: preserve; background-color: rgb(255, 255, 255);&quot;&gt;&lt;font style=&quot;font-size: 18px;&quot;&gt;&lt;font style=&quot;font-family: Helvetica; white-space-collapse: collapse; background-color: rgb(251, 251, 251); font-size: 9px;&quot;&gt;&lt;span style=&quot;font-family: Roboto, -apple-system, &amp;quot;apple color emoji&amp;quot;, BlinkMacSystemFont, &amp;quot;Segoe UI&amp;quot;, Roboto, Oxygen-Sans, Ubuntu, Cantarell, &amp;quot;Helvetica Neue&amp;quot;, sans-serif; white-space-collapse: preserve; background-color: rgb(255, 255, 255);&quot;&gt;&lt;span style=&quot;background-color: rgb(255, 255, 255);&quot;&gt;&lt;span style=&quot;box-sizing: inherit; background-color: rgb(255, 255, 255);&quot;&gt;S5.2 - Ожидание появления объекта&lt;/span&gt;&lt;span style=&quot;background-color: rgb(255, 255, 255);&quot;&gt;  &lt;br&gt;Ожидание, пока в проёме открытой калитки не появится объект (пешеход).&lt;/span&gt;&lt;/span&gt;&lt;/span&gt;&lt;/font&gt;&lt;/font&gt;&lt;/span&gt;&lt;/font&gt;&lt;/div&gt;&lt;div style=&quot;&quot;&gt;&lt;font style=&quot;&quot;&gt;&lt;span style=&quot;box-sizing: inherit; font-family: Roboto, -apple-system, &amp;quot;apple color emoji&amp;quot;, BlinkMacSystemFont, &amp;quot;Segoe UI&amp;quot;, Roboto, Oxygen-Sans, Ubuntu, Cantarell, &amp;quot;Helvetica Neue&amp;quot;, sans-serif; white-space-collapse: preserve; background-color: rgb(255, 255, 255);&quot;&gt;&lt;font style=&quot;font-size: 18px;&quot;&gt;&lt;font style=&quot;font-family: Helvetica; white-space-collapse: collapse; background-color: rgb(251, 251, 251); font-size: 9px;&quot;&gt;&lt;span style=&quot;font-family: Roboto, -apple-system, &amp;quot;apple color emoji&amp;quot;, BlinkMacSystemFont, &amp;quot;Segoe UI&amp;quot;, Roboto, Oxygen-Sans, Ubuntu, Cantarell, &amp;quot;Helvetica Neue&amp;quot;, sans-serif; white-space-collapse: preserve; background-color: rgb(255, 255, 255);&quot;&gt;&lt;span style=&quot;background-color: rgb(255, 255, 255);&quot;&gt;&lt;span style=&quot;background-color: rgb(255, 255, 255);&quot;&gt;&lt;br&gt;&lt;/span&gt;&lt;/span&gt;&lt;/span&gt;&lt;/font&gt;&lt;/font&gt;&lt;/span&gt;&lt;/font&gt;&lt;/div&gt;&lt;div style=&quot;&quot;&gt;&lt;font style=&quot;&quot;&gt;&lt;span style=&quot;box-sizing: inherit; font-family: Roboto, -apple-system, &amp;quot;apple color emoji&amp;quot;, BlinkMacSystemFont, &amp;quot;Segoe UI&amp;quot;, Roboto, Oxygen-Sans, Ubuntu, Cantarell, &amp;quot;Helvetica Neue&amp;quot;, sans-serif; white-space-collapse: preserve; background-color: rgb(255, 255, 255);&quot;&gt;&lt;font style=&quot;font-size: 18px;&quot;&gt;&lt;font style=&quot;font-family: Helvetica; white-space-collapse: collapse; background-color: rgb(251, 251, 251); font-size: 9px;&quot;&gt;&lt;span style=&quot;font-family: Roboto, -apple-system, &amp;quot;apple color emoji&amp;quot;, BlinkMacSystemFont, &amp;quot;Segoe UI&amp;quot;, Roboto, Oxygen-Sans, Ubuntu, Cantarell, &amp;quot;Helvetica Neue&amp;quot;, sans-serif; white-space-collapse: preserve; background-color: rgb(255, 255, 255);&quot;&gt;&lt;span style=&quot;background-color: rgb(255, 255, 255);&quot;&gt;&lt;span style=&quot;background-color: rgb(255, 255, 255);&quot;&gt;&lt;font style=&quot;font-family: Helvetica; white-space-collapse: collapse; background-color: rgb(251, 251, 251);&quot;&gt;&lt;span style=&quot;box-sizing: inherit; font-family: Roboto, -apple-system, &amp;quot;apple color emoji&amp;quot;, BlinkMacSystemFont, &amp;quot;Segoe UI&amp;quot;, Roboto, Oxygen-Sans, Ubuntu, Cantarell, &amp;quot;Helvetica Neue&amp;quot;, sans-serif; white-space-collapse: preserve; background-color: rgb(255, 255, 255);&quot;&gt;S5.3 - Ожидание исчезновения объекта&lt;/span&gt;&lt;span style=&quot;font-family: Roboto, -apple-system, &amp;quot;apple color emoji&amp;quot;, BlinkMacSystemFont, &amp;quot;Segoe UI&amp;quot;, Roboto, Oxygen-Sans, Ubuntu, Cantarell, &amp;quot;Helvetica Neue&amp;quot;, sans-serif; white-space-collapse: preserve; background-color: rgb(255, 255, 255);&quot;&gt;  &lt;br&gt;Ожидание, пока объект не покинет проём (пешеход пройдет сквозь калитку).&lt;/span&gt;&lt;/font&gt;&lt;span style=&quot;font-size: 16px; background-color: rgb(255, 255, 255);&quot;&gt;&lt;br&gt;&lt;/span&gt;&lt;/span&gt;&lt;/span&gt;&lt;/span&gt;&lt;/font&gt;&lt;/font&gt;&lt;/span&gt;&lt;/font&gt;&lt;/div&gt;&lt;div style=&quot;&quot;&gt;&lt;font style=&quot;&quot;&gt;&lt;span style=&quot;box-sizing: inherit; font-family: Roboto, -apple-system, &amp;quot;apple color emoji&amp;quot;, BlinkMacSystemFont, &amp;quot;Segoe UI&amp;quot;, Roboto, Oxygen-Sans, Ubuntu, Cantarell, &amp;quot;Helvetica Neue&amp;quot;, sans-serif; white-space-collapse: preserve; background-color: rgb(255, 255, 255);&quot;&gt;&lt;font style=&quot;font-size: 18px;&quot;&gt;&lt;font style=&quot;font-family: Helvetica; white-space-collapse: collapse; background-color: rgb(251, 251, 251); font-size: 9px;&quot;&gt;&lt;span style=&quot;font-family: Roboto, -apple-system, &amp;quot;apple color emoji&amp;quot;, BlinkMacSystemFont, &amp;quot;Segoe UI&amp;quot;, Roboto, Oxygen-Sans, Ubuntu, Cantarell, &amp;quot;Helvetica Neue&amp;quot;, sans-serif; white-space-collapse: preserve; background-color: rgb(255, 255, 255);&quot;&gt;&lt;span style=&quot;background-color: rgb(255, 255, 255);&quot;&gt;&lt;span style=&quot;background-color: rgb(255, 255, 255);&quot;&gt;&lt;font style=&quot;font-family: Helvetica; white-space-collapse: collapse; background-color: rgb(251, 251, 251);&quot;&gt;&lt;span style=&quot;font-family: Roboto, -apple-system, &amp;quot;apple color emoji&amp;quot;, BlinkMacSystemFont, &amp;quot;Segoe UI&amp;quot;, Roboto, Oxygen-Sans, Ubuntu, Cantarell, &amp;quot;Helvetica Neue&amp;quot;, sans-serif; white-space-collapse: preserve; background-color: rgb(255, 255, 255);&quot;&gt;&lt;br&gt;&lt;/span&gt;&lt;/font&gt;&lt;/span&gt;&lt;/span&gt;&lt;/span&gt;&lt;/font&gt;&lt;/font&gt;&lt;/span&gt;&lt;/font&gt;&lt;/div&gt;&lt;div style=&quot;&quot;&gt;&lt;font style=&quot;&quot;&gt;&lt;span style=&quot;box-sizing: inherit; font-family: Roboto, -apple-system, &amp;quot;apple color emoji&amp;quot;, BlinkMacSystemFont, &amp;quot;Segoe UI&amp;quot;, Roboto, Oxygen-Sans, Ubuntu, Cantarell, &amp;quot;Helvetica Neue&amp;quot;, sans-serif; white-space-collapse: preserve; background-color: rgb(255, 255, 255);&quot;&gt;&lt;font style=&quot;font-size: 18px;&quot;&gt;&lt;font style=&quot;font-family: Helvetica; white-space-collapse: collapse; background-color: rgb(251, 251, 251); font-size: 9px;&quot;&gt;&lt;span style=&quot;font-family: Roboto, -apple-system, &amp;quot;apple color emoji&amp;quot;, BlinkMacSystemFont, &amp;quot;Segoe UI&amp;quot;, Roboto, Oxygen-Sans, Ubuntu, Cantarell, &amp;quot;Helvetica Neue&amp;quot;, sans-serif; white-space-collapse: preserve; background-color: rgb(255, 255, 255);&quot;&gt;&lt;span style=&quot;background-color: rgb(255, 255, 255);&quot;&gt;&lt;span style=&quot;background-color: rgb(255, 255, 255);&quot;&gt;&lt;font style=&quot;font-family: Helvetica; white-space-collapse: collapse; background-color: rgb(251, 251, 251);&quot;&gt;&lt;span style=&quot;font-family: Roboto, -apple-system, &amp;quot;apple color emoji&amp;quot;, BlinkMacSystemFont, &amp;quot;Segoe UI&amp;quot;, Roboto, Oxygen-Sans, Ubuntu, Cantarell, &amp;quot;Helvetica Neue&amp;quot;, sans-serif; white-space-collapse: preserve; background-color: rgb(255, 255, 255);&quot;&gt;&lt;span style=&quot;box-sizing: inherit; background-color: rgb(255, 255, 255);&quot;&gt;S5.4 - Ожидание после прохождения объекта&lt;/span&gt;&lt;span style=&quot;background-color: rgb(255, 255, 255);&quot;&gt;  &lt;br&gt;Ждем некоторое время перед закрытием калитки после прохождения пешехода для обеспечения безопасности и комфорта, так как может быть несколько людей. Закрытие начнётся, когда препятствий не будет больше 5 секунд.&lt;/span&gt;&lt;/span&gt;&lt;/font&gt;&lt;/span&gt;&lt;/span&gt;&lt;/span&gt;&lt;/font&gt;&lt;/font&gt;&lt;/span&gt;&lt;/font&gt;&lt;/div&gt;&lt;div style=&quot;&quot;&gt;&lt;font style=&quot;&quot;&gt;&lt;span style=&quot;box-sizing: inherit; font-family: Roboto, -apple-system, &amp;quot;apple color emoji&amp;quot;, BlinkMacSystemFont, &amp;quot;Segoe UI&amp;quot;, Roboto, Oxygen-Sans, Ubuntu, Cantarell, &amp;quot;Helvetica Neue&amp;quot;, sans-serif; white-space-collapse: preserve; background-color: rgb(255, 255, 255);&quot;&gt;&lt;font style=&quot;font-size: 18px;&quot;&gt;&lt;font style=&quot;font-family: Helvetica; white-space-collapse: collapse; background-color: rgb(251, 251, 251); font-size: 9px;&quot;&gt;&lt;span style=&quot;font-family: Roboto, -apple-system, &amp;quot;apple color emoji&amp;quot;, BlinkMacSystemFont, &amp;quot;Segoe UI&amp;quot;, Roboto, Oxygen-Sans, Ubuntu, Cantarell, &amp;quot;Helvetica Neue&amp;quot;, sans-serif; white-space-collapse: preserve; background-color: rgb(255, 255, 255);&quot;&gt;&lt;span style=&quot;background-color: rgb(255, 255, 255);&quot;&gt;&lt;span style=&quot;background-color: rgb(255, 255, 255);&quot;&gt;&lt;font style=&quot;font-family: Helvetica; white-space-collapse: collapse; background-color: rgb(251, 251, 251);&quot;&gt;&lt;span style=&quot;font-family: Roboto, -apple-system, &amp;quot;apple color emoji&amp;quot;, BlinkMacSystemFont, &amp;quot;Segoe UI&amp;quot;, Roboto, Oxygen-Sans, Ubuntu, Cantarell, &amp;quot;Helvetica Neue&amp;quot;, sans-serif; white-space-collapse: preserve; background-color: rgb(255, 255, 255);&quot;&gt;&lt;span style=&quot;background-color: rgb(255, 255, 255);&quot;&gt;&lt;br&gt;&lt;/span&gt;&lt;/span&gt;&lt;/font&gt;&lt;/span&gt;&lt;/span&gt;&lt;/span&gt;&lt;/font&gt;&lt;/font&gt;&lt;/span&gt;&lt;/font&gt;&lt;/div&gt;&lt;div style=&quot;&quot;&gt;&lt;font style=&quot;&quot;&gt;&lt;span style=&quot;box-sizing: inherit; font-family: Roboto, -apple-system, &amp;quot;apple color emoji&amp;quot;, BlinkMacSystemFont, &amp;quot;Segoe UI&amp;quot;, Roboto, Oxygen-Sans, Ubuntu, Cantarell, &amp;quot;Helvetica Neue&amp;quot;, sans-serif; white-space-collapse: preserve; background-color: rgb(255, 255, 255);&quot;&gt;&lt;font style=&quot;font-size: 18px;&quot;&gt;&lt;font style=&quot;font-family: Helvetica; white-space-collapse: collapse; background-color: rgb(251, 251, 251); font-size: 9px;&quot;&gt;&lt;span style=&quot;font-family: Roboto, -apple-system, &amp;quot;apple color emoji&amp;quot;, BlinkMacSystemFont, &amp;quot;Segoe UI&amp;quot;, Roboto, Oxygen-Sans, Ubuntu, Cantarell, &amp;quot;Helvetica Neue&amp;quot;, sans-serif; white-space-collapse: preserve; background-color: rgb(255, 255, 255);&quot;&gt;&lt;span style=&quot;background-color: rgb(255, 255, 255);&quot;&gt;&lt;span style=&quot;background-color: rgb(255, 255, 255);&quot;&gt;&lt;font style=&quot;font-family: Helvetica; white-space-collapse: collapse; background-color: rgb(251, 251, 251);&quot;&gt;&lt;span style=&quot;font-family: Roboto, -apple-system, &amp;quot;apple color emoji&amp;quot;, BlinkMacSystemFont, &amp;quot;Segoe UI&amp;quot;, Roboto, Oxygen-Sans, Ubuntu, Cantarell, &amp;quot;Helvetica Neue&amp;quot;, sans-serif; white-space-collapse: preserve; background-color: rgb(255, 255, 255);&quot;&gt;&lt;span style=&quot;background-color: rgb(255, 255, 255);&quot;&gt;&lt;font style=&quot;font-family: Helvetica; white-space-collapse: collapse; background-color: rgb(251, 251, 251);&quot;&gt;&lt;span style=&quot;box-sizing: inherit; font-family: Roboto, -apple-system, &amp;quot;apple color emoji&amp;quot;, BlinkMacSystemFont, &amp;quot;Segoe UI&amp;quot;, Roboto, Oxygen-Sans, Ubuntu, Cantarell, &amp;quot;Helvetica Neue&amp;quot;, sans-serif; white-space-collapse: preserve; background-color: rgb(255, 255, 255);&quot;&gt;S5.5 - Закрытие калитки&lt;/span&gt;&lt;span style=&quot;font-family: Roboto, -apple-system, &amp;quot;apple color emoji&amp;quot;, BlinkMacSystemFont, &amp;quot;Segoe UI&amp;quot;, Roboto, Oxygen-Sans, Ubuntu, Cantarell, &amp;quot;Helvetica Neue&amp;quot;, sans-serif; white-space-collapse: preserve; background-color: rgb(255, 255, 255);&quot;&gt;  &lt;br&gt;Калитка плавно закрывается до срабатывания датчика закрытия. Если появляется препятствие, калитка останавливается, но не открывается повторно.&lt;/span&gt;&lt;/font&gt;&lt;/span&gt;&lt;/span&gt;&lt;/font&gt;&lt;/span&gt;&lt;/span&gt;&lt;/span&gt;&lt;/font&gt;&lt;/font&gt;&lt;/span&gt;&lt;/font&gt;&lt;/div&gt;&lt;div style=&quot;&quot;&gt;&lt;font style=&quot;&quot;&gt;&lt;span style=&quot;box-sizing: inherit; font-family: Roboto, -apple-system, &amp;quot;apple color emoji&amp;quot;, BlinkMacSystemFont, &amp;quot;Segoe UI&amp;quot;, Roboto, Oxygen-Sans, Ubuntu, Cantarell, &amp;quot;Helvetica Neue&amp;quot;, sans-serif; white-space-collapse: preserve; background-color: rgb(255, 255, 255);&quot;&gt;&lt;font style=&quot;font-size: 18px;&quot;&gt;&lt;font style=&quot;font-family: Helvetica; white-space-collapse: collapse; background-color: rgb(251, 251, 251); font-size: 9px;&quot;&gt;&lt;span style=&quot;font-family: Roboto, -apple-system, &amp;quot;apple color emoji&amp;quot;, BlinkMacSystemFont, &amp;quot;Segoe UI&amp;quot;, Roboto, Oxygen-Sans, Ubuntu, Cantarell, &amp;quot;Helvetica Neue&amp;quot;, sans-serif; white-space-collapse: preserve; background-color: rgb(255, 255, 255);&quot;&gt;&lt;span style=&quot;background-color: rgb(255, 255, 255);&quot;&gt;&lt;span style=&quot;background-color: rgb(255, 255, 255);&quot;&gt;&lt;font style=&quot;font-family: Helvetica; white-space-collapse: collapse; background-color: rgb(251, 251, 251);&quot;&gt;&lt;span style=&quot;font-family: Roboto, -apple-system, &amp;quot;apple color emoji&amp;quot;, BlinkMacSystemFont, &amp;quot;Segoe UI&amp;quot;, Roboto, Oxygen-Sans, Ubuntu, Cantarell, &amp;quot;Helvetica Neue&amp;quot;, sans-serif; white-space-collapse: preserve; background-color: rgb(255, 255, 255);&quot;&gt;&lt;span style=&quot;background-color: rgb(255, 255, 255);&quot;&gt;&lt;font style=&quot;font-family: Helvetica; white-space-collapse: collapse; background-color: rgb(251, 251, 251);&quot;&gt;&lt;span style=&quot;font-family: Roboto, -apple-system, &amp;quot;apple color emoji&amp;quot;, BlinkMacSystemFont, &amp;quot;Segoe UI&amp;quot;, Roboto, Oxygen-Sans, Ubuntu, Cantarell, &amp;quot;Helvetica Neue&amp;quot;, sans-serif; white-space-collapse: preserve; background-color: rgb(255, 255, 255);&quot;&gt;&lt;br&gt;&lt;/span&gt;&lt;/font&gt;&lt;/span&gt;&lt;/span&gt;&lt;/font&gt;&lt;/span&gt;&lt;/span&gt;&lt;/span&gt;&lt;/font&gt;&lt;/font&gt;&lt;/span&gt;&lt;/font&gt;&lt;/div&gt;&lt;div style=&quot;&quot;&gt;&lt;font style=&quot;&quot;&gt;&lt;span style=&quot;box-sizing: inherit; font-family: Roboto, -apple-system, &amp;quot;apple color emoji&amp;quot;, BlinkMacSystemFont, &amp;quot;Segoe UI&amp;quot;, Roboto, Oxygen-Sans, Ubuntu, Cantarell, &amp;quot;Helvetica Neue&amp;quot;, sans-serif; white-space-collapse: preserve; background-color: rgb(255, 255, 255);&quot;&gt;&lt;font style=&quot;font-size: 18px;&quot;&gt;&lt;font style=&quot;font-family: Helvetica; white-space-collapse: collapse; background-color: rgb(251, 251, 251); font-size: 9px;&quot;&gt;&lt;span style=&quot;font-family: Roboto, -apple-system, &amp;quot;apple color emoji&amp;quot;, BlinkMacSystemFont, &amp;quot;Segoe UI&amp;quot;, Roboto, Oxygen-Sans, Ubuntu, Cantarell, &amp;quot;Helvetica Neue&amp;quot;, sans-serif; white-space-collapse: preserve; background-color: rgb(255, 255, 255);&quot;&gt;&lt;span style=&quot;background-color: rgb(255, 255, 255);&quot;&gt;&lt;span style=&quot;background-color: rgb(255, 255, 255);&quot;&gt;&lt;font style=&quot;font-family: Helvetica; white-space-collapse: collapse; background-color: rgb(251, 251, 251);&quot;&gt;&lt;span style=&quot;font-family: Roboto, -apple-system, &amp;quot;apple color emoji&amp;quot;, BlinkMacSystemFont, &amp;quot;Segoe UI&amp;quot;, Roboto, Oxygen-Sans, Ubuntu, Cantarell, &amp;quot;Helvetica Neue&amp;quot;, sans-serif; white-space-collapse: preserve; background-color: rgb(255, 255, 255);&quot;&gt;&lt;span style=&quot;background-color: rgb(255, 255, 255);&quot;&gt;&lt;font style=&quot;font-family: Helvetica; white-space-collapse: collapse; background-color: rgb(251, 251, 251);&quot;&gt;&lt;span style=&quot;font-family: Roboto, -apple-system, &amp;quot;apple color emoji&amp;quot;, BlinkMacSystemFont, &amp;quot;Segoe UI&amp;quot;, Roboto, Oxygen-Sans, Ubuntu, Cantarell, &amp;quot;Helvetica Neue&amp;quot;, sans-serif; white-space-collapse: preserve; background-color: rgb(255, 255, 255);&quot;&gt;&lt;font style=&quot;font-family: Helvetica; white-space-collapse: collapse; background-color: rgb(251, 251, 251);&quot;&gt;&lt;span style=&quot;box-sizing: inherit; font-family: Roboto, -apple-system, &amp;quot;apple color emoji&amp;quot;, BlinkMacSystemFont, &amp;quot;Segoe UI&amp;quot;, Roboto, Oxygen-Sans, Ubuntu, Cantarell, &amp;quot;Helvetica Neue&amp;quot;, sans-serif; white-space-collapse: preserve; background-color: rgb(255, 255, 255);&quot;&gt;5.6-&amp;gt;ВЫХОД:&lt;/span&gt;&lt;span style=&quot;font-family: Roboto, -apple-system, &amp;quot;apple color emoji&amp;quot;, BlinkMacSystemFont, &amp;quot;Segoe UI&amp;quot;, Roboto, Oxygen-Sans, Ubuntu, Cantarell, &amp;quot;Helvetica Neue&amp;quot;, sans-serif; white-space-collapse: preserve; background-color: rgb(255, 255, 255);&quot;&gt; таймаут на закрытие и фиксацию замка (калитка заперта). Отключаем сервопривод.  &lt;/span&gt;&lt;/font&gt;&lt;span style=&quot;font-size: 16px; background-color: rgb(255, 255, 255);&quot;&gt;&lt;br&gt;&lt;/span&gt;&lt;font style=&quot;font-family: Helvetica; white-space-collapse: collapse; background-color: rgb(251, 251, 251);&quot;&gt;&lt;span style=&quot;box-sizing: inherit; font-family: Roboto, -apple-system, &amp;quot;apple color emoji&amp;quot;, BlinkMacSystemFont, &amp;quot;Segoe UI&amp;quot;, Roboto, Oxygen-Sans, Ubuntu, Cantarell, &amp;quot;Helvetica Neue&amp;quot;, sans-serif; white-space-collapse: preserve; background-color: rgb(255, 255, 255);&quot;&gt;system_check() - Проверка системы:&lt;/span&gt;&lt;span style=&quot;font-family: Roboto, -apple-system, &amp;quot;apple color emoji&amp;quot;, BlinkMacSystemFont, &amp;quot;Segoe UI&amp;quot;, Roboto, Oxygen-Sans, Ubuntu, Cantarell, &amp;quot;Helvetica Neue&amp;quot;, sans-serif; white-space-collapse: preserve; background-color: rgb(255, 255, 255);&quot;&gt; состояние ворот и калитки. Отключение подсветки и сирены, сброс введенного пароля. На дисплее отображается сообщение &quot;Приложите карту&quot;.&lt;/span&gt;&lt;/font&gt;&lt;/span&gt;&lt;/font&gt;&lt;/span&gt;&lt;/span&gt;&lt;/font&gt;&lt;/span&gt;&lt;/span&gt;&lt;/span&gt;&lt;/font&gt;&lt;/font&gt;&lt;/span&gt;&lt;/font&gt;&lt;/div&gt;&lt;div&gt;&lt;font style=&quot;&quot;&gt;&lt;span style=&quot;box-sizing: inherit; font-family: Roboto, -apple-system, &amp;quot;apple color emoji&amp;quot;, BlinkMacSystemFont, &amp;quot;Segoe UI&amp;quot;, Roboto, Oxygen-Sans, Ubuntu, Cantarell, &amp;quot;Helvetica Neue&amp;quot;, sans-serif; white-space-collapse: preserve; background-color: rgb(255, 255, 255);&quot;&gt;&lt;font style=&quot;font-size: 18px;&quot;&gt;&lt;font style=&quot;font-family: Helvetica; white-space-collapse: collapse; background-color: rgb(251, 251, 251); font-size: 9px;&quot;&gt;&lt;span style=&quot;font-family: Roboto, -apple-system, &amp;quot;apple color emoji&amp;quot;, BlinkMacSystemFont, &amp;quot;Segoe UI&amp;quot;, Roboto, Oxygen-Sans, Ubuntu, Cantarell, &amp;quot;Helvetica Neue&amp;quot;, sans-serif; white-space-collapse: preserve; background-color: rgb(255, 255, 255);&quot;&gt;&lt;span style=&quot;background-color: rgb(255, 255, 255);&quot;&gt;&lt;span style=&quot;background-color: rgb(255, 255, 255);&quot;&gt;&lt;font style=&quot;font-family: Helvetica; white-space-collapse: collapse; background-color: rgb(251, 251, 251);&quot;&gt;&lt;span style=&quot;font-family: Roboto, -apple-system, &amp;quot;apple color emoji&amp;quot;, BlinkMacSystemFont, &amp;quot;Segoe UI&amp;quot;, Roboto, Oxygen-Sans, Ubuntu, Cantarell, &amp;quot;Helvetica Neue&amp;quot;, sans-serif; white-space-collapse: preserve; background-color: rgb(255, 255, 255);&quot;&gt;&lt;span style=&quot;background-color: rgb(255, 255, 255);&quot;&gt;&lt;font style=&quot;font-family: Helvetica; white-space-collapse: collapse; background-color: rgb(251, 251, 251);&quot;&gt;&lt;span style=&quot;font-family: Roboto, -apple-system, &amp;quot;apple color emoji&amp;quot;, BlinkMacSystemFont, &amp;quot;Segoe UI&amp;quot;, Roboto, Oxygen-Sans, Ubuntu, Cantarell, &amp;quot;Helvetica Neue&amp;quot;, sans-serif; white-space-collapse: preserve; background-color: rgb(255, 255, 255);&quot;&gt;&lt;br&gt;&lt;/span&gt;&lt;/font&gt;&lt;/span&gt;&lt;/span&gt;&lt;/font&gt;&lt;/span&gt;&lt;/span&gt;&lt;/span&gt;&lt;/font&gt;&lt;/font&gt;&lt;/span&gt;&lt;/font&gt;&lt;/div&gt;&lt;div style=&quot;&quot;&gt;&lt;font style=&quot;&quot;&gt;&lt;span style=&quot;box-sizing: inherit; font-family: Roboto, -apple-system, &amp;quot;apple color emoji&amp;quot;, BlinkMacSystemFont, &amp;quot;Segoe UI&amp;quot;, Roboto, Oxygen-Sans, Ubuntu, Cantarell, &amp;quot;Helvetica Neue&amp;quot;, sans-serif; white-space-collapse: preserve; background-color: rgb(255, 255, 255);&quot;&gt;&lt;font style=&quot;font-size: 18px;&quot;&gt;&lt;br&gt;&lt;/font&gt;&lt;/span&gt;&lt;/font&gt;&lt;/div&gt;&lt;br&gt;&lt;/span&gt;&lt;/font&gt;" style="text;html=1;align=left;verticalAlign=middle;whiteSpace=wrap;rounded=0;" vertex="1" parent="1">
          <mxGeometry x="-10" y="2490" width="360" height="510" as="geometry" />
        </mxCell>
        <mxCell id="UQzExY35ptfeDzWS35jL-156" value="&lt;div&gt;&lt;font style=&quot;&quot;&gt;&lt;span style=&quot;box-sizing: inherit; font-family: Roboto, -apple-system, &amp;quot;apple color emoji&amp;quot;, BlinkMacSystemFont, &amp;quot;Segoe UI&amp;quot;, Roboto, Oxygen-Sans, Ubuntu, Cantarell, &amp;quot;Helvetica Neue&amp;quot;, sans-serif; white-space-collapse: preserve; background-color: rgb(255, 255, 255);&quot;&gt;&lt;span style=&quot;font-size: 9px; white-space: pre;&quot;&gt;&#x9;&lt;/span&gt;&lt;span style=&quot;font-size: 9px; white-space: pre;&quot;&gt;&#x9;&lt;/span&gt;&lt;span style=&quot;font-size: 9px; white-space: pre;&quot;&gt;&#x9;&lt;/span&gt;&lt;span style=&quot;font-size: 9px; white-space: pre;&quot;&gt;&#x9;&lt;/span&gt;&lt;font style=&quot;font-size: 18px;&quot;&gt;Пояснения к переходам&lt;/font&gt;&lt;/span&gt;&lt;/font&gt;&lt;/div&gt;&lt;div&gt;&lt;font style=&quot;&quot;&gt;&lt;span style=&quot;box-sizing: inherit; font-family: Roboto, -apple-system, &amp;quot;apple color emoji&amp;quot;, BlinkMacSystemFont, &amp;quot;Segoe UI&amp;quot;, Roboto, Oxygen-Sans, Ubuntu, Cantarell, &amp;quot;Helvetica Neue&amp;quot;, sans-serif; white-space-collapse: preserve; background-color: rgb(255, 255, 255);&quot;&gt;&lt;font style=&quot;font-size: 18px;&quot;&gt;&lt;br&gt;&lt;/font&gt;&lt;/span&gt;&lt;/font&gt;&lt;/div&gt;&lt;div&gt;&lt;font style=&quot;&quot;&gt;&lt;span style=&quot;box-sizing: inherit; font-family: Roboto, -apple-system, &amp;quot;apple color emoji&amp;quot;, BlinkMacSystemFont, &amp;quot;Segoe UI&amp;quot;, Roboto, Oxygen-Sans, Ubuntu, Cantarell, &amp;quot;Helvetica Neue&amp;quot;, sans-serif; white-space-collapse: preserve; background-color: rgb(255, 255, 255);&quot;&gt;&lt;font style=&quot;font-size: 18px;&quot;&gt;&lt;span style=&quot;font-size: 9px; box-sizing: inherit; background-color: rgb(255, 255, 255);&quot;&gt;5.0-5.1:&lt;/span&gt;&lt;span style=&quot;font-size: 9px; background-color: rgb(255, 255, 255);&quot;&gt; таймаут на открытие запора (калитка уже открыта)  &lt;/span&gt;&lt;/font&gt;&lt;/span&gt;&lt;/font&gt;&lt;/div&gt;&lt;div&gt;&lt;font style=&quot;&quot;&gt;&lt;span style=&quot;box-sizing: inherit; font-family: Roboto, -apple-system, &amp;quot;apple color emoji&amp;quot;, BlinkMacSystemFont, &amp;quot;Segoe UI&amp;quot;, Roboto, Oxygen-Sans, Ubuntu, Cantarell, &amp;quot;Helvetica Neue&amp;quot;, sans-serif; white-space-collapse: preserve; background-color: rgb(255, 255, 255);&quot;&gt;&lt;font style=&quot;font-size: 18px;&quot;&gt;&lt;span style=&quot;font-size: 9px; background-color: rgb(255, 255, 255);&quot;&gt;&lt;br&gt;&lt;/span&gt;&lt;/font&gt;&lt;/span&gt;&lt;/font&gt;&lt;/div&gt;&lt;div&gt;&lt;font style=&quot;&quot;&gt;&lt;span style=&quot;box-sizing: inherit; font-family: Roboto, -apple-system, &amp;quot;apple color emoji&amp;quot;, BlinkMacSystemFont, &amp;quot;Segoe UI&amp;quot;, Roboto, Oxygen-Sans, Ubuntu, Cantarell, &amp;quot;Helvetica Neue&amp;quot;, sans-serif; white-space-collapse: preserve; background-color: rgb(255, 255, 255);&quot;&gt;&lt;font style=&quot;font-size: 18px;&quot;&gt;&lt;span style=&quot;font-size: 9px; background-color: rgb(255, 255, 255);&quot;&gt;&lt;span style=&quot;box-sizing: inherit; background-color: rgb(255, 255, 255);&quot;&gt;5.2-5.3:&lt;/span&gt;&lt;span style=&quot;background-color: rgb(255, 255, 255);&quot;&gt; Датчик объекта зафиксировал наличие препятствия (применяется фильтрация данных) &lt;/span&gt;&lt;/span&gt;&lt;/font&gt;&lt;/span&gt;&lt;/font&gt;&lt;/div&gt;&lt;div&gt;&lt;font style=&quot;&quot;&gt;&lt;span style=&quot;box-sizing: inherit; font-family: Roboto, -apple-system, &amp;quot;apple color emoji&amp;quot;, BlinkMacSystemFont, &amp;quot;Segoe UI&amp;quot;, Roboto, Oxygen-Sans, Ubuntu, Cantarell, &amp;quot;Helvetica Neue&amp;quot;, sans-serif; white-space-collapse: preserve; background-color: rgb(255, 255, 255);&quot;&gt;&lt;font style=&quot;font-size: 18px;&quot;&gt;&lt;span style=&quot;font-size: 9px; background-color: rgb(255, 255, 255);&quot;&gt;&lt;span style=&quot;background-color: rgb(255, 255, 255);&quot;&gt;&lt;br&gt;&lt;/span&gt;&lt;/span&gt;&lt;/font&gt;&lt;/span&gt;&lt;/font&gt;&lt;/div&gt;&lt;div&gt;&lt;font style=&quot;&quot;&gt;&lt;span style=&quot;box-sizing: inherit; font-family: Roboto, -apple-system, &amp;quot;apple color emoji&amp;quot;, BlinkMacSystemFont, &amp;quot;Segoe UI&amp;quot;, Roboto, Oxygen-Sans, Ubuntu, Cantarell, &amp;quot;Helvetica Neue&amp;quot;, sans-serif; white-space-collapse: preserve; background-color: rgb(255, 255, 255);&quot;&gt;&lt;font style=&quot;font-size: 18px;&quot;&gt;&lt;span style=&quot;font-size: 9px; background-color: rgb(255, 255, 255);&quot;&gt;&lt;span style=&quot;background-color: rgb(255, 255, 255);&quot;&gt;&lt;span style=&quot;font-size: 12px; box-sizing: inherit; background-color: rgb(255, 255, 255);&quot;&gt;&lt;font style=&quot;font-size: 9px;&quot;&gt;5.3-5.4:&lt;/font&gt;&lt;/span&gt;&lt;span style=&quot;font-size: 12px; background-color: rgb(255, 255, 255);&quot;&gt;&lt;font style=&quot;font-size: 9px;&quot;&gt; Датчик объекта зафиксировал исчезновение препятствия (применяется фильтрация данных)  &lt;/font&gt;&lt;/span&gt;&lt;/span&gt;&lt;/span&gt;&lt;/font&gt;&lt;/span&gt;&lt;/font&gt;&lt;/div&gt;&lt;div&gt;&lt;font style=&quot;&quot;&gt;&lt;span style=&quot;box-sizing: inherit; font-family: Roboto, -apple-system, &amp;quot;apple color emoji&amp;quot;, BlinkMacSystemFont, &amp;quot;Segoe UI&amp;quot;, Roboto, Oxygen-Sans, Ubuntu, Cantarell, &amp;quot;Helvetica Neue&amp;quot;, sans-serif; white-space-collapse: preserve; background-color: rgb(255, 255, 255);&quot;&gt;&lt;font style=&quot;font-size: 18px;&quot;&gt;&lt;span style=&quot;font-size: 9px; background-color: rgb(255, 255, 255);&quot;&gt;&lt;span style=&quot;background-color: rgb(255, 255, 255);&quot;&gt;&lt;span style=&quot;font-size: 12px; background-color: rgb(255, 255, 255);&quot;&gt;&lt;font style=&quot;font-size: 9px;&quot;&gt;&lt;br&gt;&lt;/font&gt;&lt;/span&gt;&lt;/span&gt;&lt;/span&gt;&lt;/font&gt;&lt;/span&gt;&lt;/font&gt;&lt;/div&gt;&lt;div&gt;&lt;font style=&quot;&quot;&gt;&lt;span style=&quot;box-sizing: inherit; font-family: Roboto, -apple-system, &amp;quot;apple color emoji&amp;quot;, BlinkMacSystemFont, &amp;quot;Segoe UI&amp;quot;, Roboto, Oxygen-Sans, Ubuntu, Cantarell, &amp;quot;Helvetica Neue&amp;quot;, sans-serif; white-space-collapse: preserve; background-color: rgb(255, 255, 255);&quot;&gt;&lt;font style=&quot;font-size: 18px;&quot;&gt;&lt;span style=&quot;font-size: 9px; background-color: rgb(255, 255, 255);&quot;&gt;&lt;span style=&quot;background-color: rgb(255, 255, 255);&quot;&gt;&lt;span style=&quot;font-size: 12px; background-color: rgb(255, 255, 255);&quot;&gt;&lt;font style=&quot;font-size: 9px;&quot;&gt;&lt;span style=&quot;box-sizing: inherit; background-color: rgb(255, 255, 255);&quot;&gt;5.4-5.5:&lt;/span&gt;&lt;span style=&quot;background-color: rgb(255, 255, 255);&quot;&gt; Прошло более 5 секунд с момента исчезновения последнего объекта. &lt;/span&gt;&lt;/font&gt;&lt;/span&gt;&lt;/span&gt;&lt;/span&gt;&lt;/font&gt;&lt;/span&gt;&lt;/font&gt;&lt;/div&gt;&lt;div&gt;&lt;font style=&quot;&quot;&gt;&lt;span style=&quot;box-sizing: inherit; font-family: Roboto, -apple-system, &amp;quot;apple color emoji&amp;quot;, BlinkMacSystemFont, &amp;quot;Segoe UI&amp;quot;, Roboto, Oxygen-Sans, Ubuntu, Cantarell, &amp;quot;Helvetica Neue&amp;quot;, sans-serif; white-space-collapse: preserve; background-color: rgb(255, 255, 255);&quot;&gt;&lt;font style=&quot;font-size: 18px;&quot;&gt;&lt;span style=&quot;font-size: 9px; background-color: rgb(255, 255, 255);&quot;&gt;&lt;span style=&quot;background-color: rgb(255, 255, 255);&quot;&gt;&lt;span style=&quot;font-size: 12px; background-color: rgb(255, 255, 255);&quot;&gt;&lt;font style=&quot;font-size: 9px;&quot;&gt;&lt;span style=&quot;background-color: rgb(255, 255, 255);&quot;&gt;&lt;br&gt;&lt;/span&gt;&lt;/font&gt;&lt;/span&gt;&lt;/span&gt;&lt;/span&gt;&lt;/font&gt;&lt;/span&gt;&lt;/font&gt;&lt;/div&gt;&lt;div&gt;&lt;font style=&quot;&quot;&gt;&lt;span style=&quot;box-sizing: inherit; font-family: Roboto, -apple-system, &amp;quot;apple color emoji&amp;quot;, BlinkMacSystemFont, &amp;quot;Segoe UI&amp;quot;, Roboto, Oxygen-Sans, Ubuntu, Cantarell, &amp;quot;Helvetica Neue&amp;quot;, sans-serif; white-space-collapse: preserve; background-color: rgb(255, 255, 255);&quot;&gt;&lt;font style=&quot;font-size: 18px;&quot;&gt;&lt;span style=&quot;font-size: 9px; background-color: rgb(255, 255, 255);&quot;&gt;&lt;span style=&quot;background-color: rgb(255, 255, 255);&quot;&gt;&lt;span style=&quot;font-size: 12px; background-color: rgb(255, 255, 255);&quot;&gt;&lt;font style=&quot;font-size: 9px;&quot;&gt;&lt;span style=&quot;background-color: rgb(255, 255, 255);&quot;&gt;&lt;span style=&quot;box-sizing: inherit; background-color: rgb(255, 255, 255);&quot;&gt;5.5-5.6:&lt;/span&gt;&lt;span style=&quot;background-color: rgb(255, 255, 255);&quot;&gt; Датчик объекта снова зафиксировал препятствие (применяется фильтрация данных)&lt;/span&gt;&lt;/span&gt;&lt;/font&gt;&lt;/span&gt;&lt;/span&gt;&lt;/span&gt;&lt;/font&gt;&lt;/span&gt;&lt;/font&gt;&lt;/div&gt;&lt;div&gt;&lt;font style=&quot;&quot;&gt;&lt;span style=&quot;box-sizing: inherit; font-family: Roboto, -apple-system, &amp;quot;apple color emoji&amp;quot;, BlinkMacSystemFont, &amp;quot;Segoe UI&amp;quot;, Roboto, Oxygen-Sans, Ubuntu, Cantarell, &amp;quot;Helvetica Neue&amp;quot;, sans-serif; white-space-collapse: preserve; background-color: rgb(255, 255, 255);&quot;&gt;&lt;font style=&quot;font-size: 18px;&quot;&gt;&lt;span style=&quot;font-size: 9px; background-color: rgb(255, 255, 255);&quot;&gt;&lt;br&gt;&lt;/span&gt;&lt;/font&gt;&lt;/span&gt;&lt;/font&gt;&lt;/div&gt;" style="text;html=1;align=left;verticalAlign=middle;whiteSpace=wrap;rounded=0;" vertex="1" parent="1">
          <mxGeometry x="400" y="2340" width="370" height="490" as="geometry" />
        </mxCell>
        <mxCell id="UQzExY35ptfeDzWS35jL-159" value="&lt;span style=&quot;font-family: Roboto, -apple-system, &amp;quot;apple color emoji&amp;quot;, BlinkMacSystemFont, &amp;quot;Segoe UI&amp;quot;, Roboto, Oxygen-Sans, Ubuntu, Cantarell, &amp;quot;Helvetica Neue&amp;quot;, sans-serif; text-align: left; white-space-collapse: preserve; background-color: rgb(255, 255, 255);&quot;&gt; &lt;/span&gt;&lt;font style=&quot;font-family: Roboto, -apple-system, &amp;quot;apple color emoji&amp;quot;, BlinkMacSystemFont, &amp;quot;Segoe UI&amp;quot;, Roboto, Oxygen-Sans, Ubuntu, Cantarell, &amp;quot;Helvetica Neue&amp;quot;, sans-serif; text-align: left; white-space-collapse: preserve; font-size: 18px;&quot;&gt;Пояснения к блокам&lt;/font&gt;&lt;div style=&quot;text-align: left;&quot;&gt;&lt;font style=&quot;font-family: Roboto, -apple-system, &amp;quot;apple color emoji&amp;quot;, BlinkMacSystemFont, &amp;quot;Segoe UI&amp;quot;, Roboto, Oxygen-Sans, Ubuntu, Cantarell, &amp;quot;Helvetica Neue&amp;quot;, sans-serif; white-space-collapse: preserve;&quot;&gt;&lt;font style=&quot;font-size: 9px; font-family: Helvetica; white-space-collapse: collapse;&quot;&gt;S1 -&amp;nbsp;&lt;span style=&quot;background-color: transparent; color: light-dark(rgb(0, 0, 0), rgb(255, 255, 255));&quot;&gt;Подготовка&amp;nbsp;&lt;/span&gt;&lt;span style=&quot;background-color: transparent; color: light-dark(rgb(0, 0, 0), rgb(255, 255, 255));&quot;&gt;к работе&lt;/span&gt;&lt;/font&gt;&lt;div style=&quot;font-size: 12px; font-family: Helvetica; white-space-collapse: collapse;&quot;&gt;&lt;span style=&quot;font-family: Roboto, -apple-system, &amp;quot;apple color emoji&amp;quot;, BlinkMacSystemFont, &amp;quot;Segoe UI&amp;quot;, Roboto, Oxygen-Sans, Ubuntu, Cantarell, &amp;quot;Helvetica Neue&amp;quot;, sans-serif; white-space-collapse: preserve; background-color: rgb(255, 255, 255);&quot;&gt;&lt;font style=&quot;font-size: 9px;&quot;&gt;Настройка и проверка всех систем. Закрытие и блокировка входа и ворот. Подключение к серверу через последовательный интерфейс.&lt;/font&gt;&lt;/span&gt;&lt;/div&gt;&lt;div style=&quot;font-size: 12px; font-family: Helvetica; white-space-collapse: collapse;&quot;&gt;&lt;span style=&quot;font-family: Roboto, -apple-system, &amp;quot;apple color emoji&amp;quot;, BlinkMacSystemFont, &amp;quot;Segoe UI&amp;quot;, Roboto, Oxygen-Sans, Ubuntu, Cantarell, &amp;quot;Helvetica Neue&amp;quot;, sans-serif; white-space-collapse: preserve; background-color: rgb(255, 255, 255);&quot;&gt;&lt;font style=&quot;font-size: 9px;&quot;&gt;&lt;br&gt;&lt;/font&gt;&lt;/span&gt;&lt;/div&gt;&lt;div style=&quot;font-family: Helvetica; white-space-collapse: collapse;&quot;&gt;&lt;span style=&quot;font-family: Roboto, -apple-system, &amp;quot;apple color emoji&amp;quot;, BlinkMacSystemFont, &amp;quot;Segoe UI&amp;quot;, Roboto, Oxygen-Sans, Ubuntu, Cantarell, &amp;quot;Helvetica Neue&amp;quot;, sans-serif; white-space-collapse: preserve; background-color: rgb(255, 255, 255);&quot;&gt;&lt;font style=&quot;&quot;&gt;&lt;font style=&quot;font-size: 9px; font-family: Helvetica; white-space-collapse: collapse; background-color: rgb(251, 251, 251);&quot;&gt;S2&lt;/font&gt;&lt;span style=&quot;font-size: 12px; font-family: Helvetica; white-space-collapse: collapse; background-color: rgb(251, 251, 251);&quot;&gt;&amp;nbsp;&lt;/span&gt;&lt;font style=&quot;font-size: 9px; font-family: Helvetica; white-space-collapse: collapse; background-color: rgb(251, 251, 251);&quot;&gt;-&lt;/font&gt;&lt;span style=&quot;font-size: 12px; font-family: Helvetica; white-space-collapse: collapse; background-color: rgb(251, 251, 251);&quot;&gt;&amp;nbsp;&lt;/span&gt;&lt;font style=&quot;font-size: 9px; font-family: Helvetica; white-space-collapse: collapse; background-color: rgb(251, 251, 251);&quot;&gt;Ожидание пароля или карточки&lt;/font&gt;&lt;div style=&quot;font-size: 12px; font-family: Helvetica; white-space-collapse: collapse; background-color: rgb(251, 251, 251);&quot;&gt;&lt;font style=&quot;font-size: 9px;&quot;&gt;&lt;span style=&quot;background-color: rgb(255, 255, 255); font-family: Roboto, -apple-system, &amp;quot;apple color emoji&amp;quot;, BlinkMacSystemFont, &amp;quot;Segoe UI&amp;quot;, Roboto, Oxygen-Sans, Ubuntu, Cantarell, &amp;quot;Helvetica Neue&amp;quot;, sans-serif; white-space-collapse: preserve; color: light-dark(rgb(0, 0, 0), rgb(255, 255, 255));&quot;&gt;При регистрации нажатий клавиш, пароль сбрасывается через 30 секунд бездействия. Проверяется наличие RFID метки у устройства RC522. &lt;/span&gt;&lt;/font&gt;&lt;/div&gt;&lt;div style=&quot;font-size: 12px; font-family: Helvetica; white-space-collapse: collapse; background-color: rgb(251, 251, 251);&quot;&gt;&lt;font style=&quot;font-size: 9px;&quot;&gt;&lt;span style=&quot;background-color: rgb(255, 255, 255); font-family: Roboto, -apple-system, &amp;quot;apple color emoji&amp;quot;, BlinkMacSystemFont, &amp;quot;Segoe UI&amp;quot;, Roboto, Oxygen-Sans, Ubuntu, Cantarell, &amp;quot;Helvetica Neue&amp;quot;, sans-serif; white-space-collapse: preserve; color: light-dark(rgb(0, 0, 0), rgb(255, 255, 255));&quot;&gt;&lt;br&gt;&lt;/span&gt;&lt;/font&gt;&lt;/div&gt;&lt;div style=&quot;font-family: Helvetica; white-space-collapse: collapse; background-color: rgb(251, 251, 251);&quot;&gt;&lt;font style=&quot;&quot;&gt;&lt;span style=&quot;background-color: rgb(255, 255, 255); font-family: Roboto, -apple-system, &amp;quot;apple color emoji&amp;quot;, BlinkMacSystemFont, &amp;quot;Segoe UI&amp;quot;, Roboto, Oxygen-Sans, Ubuntu, Cantarell, &amp;quot;Helvetica Neue&amp;quot;, sans-serif; white-space-collapse: preserve; color: light-dark(rgb(0, 0, 0), rgb(255, 255, 255));&quot;&gt;&lt;font style=&quot;font-size: 9px; font-family: Helvetica; white-space-collapse: collapse; background-color: rgb(251, 251, 251);&quot;&gt;S3 -&lt;/font&gt;&lt;span style=&quot;font-size: 12px; font-family: Helvetica; white-space-collapse: collapse; background-color: rgb(251, 251, 251);&quot;&gt;&amp;nbsp;&lt;/span&gt;&lt;font style=&quot;font-size: 9px; font-family: Helvetica; white-space-collapse: collapse; background-color: rgb(251, 251, 251);&quot;&gt;Проверка пароля&amp;nbsp;&lt;/font&gt;&lt;div style=&quot;font-size: 12px; font-family: Helvetica; white-space-collapse: collapse; background-color: rgb(251, 251, 251);&quot;&gt;&lt;span style=&quot;font-family: Roboto, -apple-system, &amp;quot;apple color emoji&amp;quot;, BlinkMacSystemFont, &amp;quot;Segoe UI&amp;quot;, Roboto, Oxygen-Sans, Ubuntu, Cantarell, &amp;quot;Helvetica Neue&amp;quot;, sans-serif; white-space-collapse: preserve; background-color: rgb(255, 255, 255);&quot;&gt;&lt;font style=&quot;font-size: 10px;&quot;&gt;Проверка пароля, введённого пользователем, с возможностью доступа к базе данных. Также предусмотрена функция сброса пароля, введённого пользователем.&lt;/font&gt;&lt;/span&gt;&lt;/div&gt;&lt;div style=&quot;font-size: 12px; font-family: Helvetica; white-space-collapse: collapse; background-color: rgb(251, 251, 251);&quot;&gt;&lt;span style=&quot;font-family: Roboto, -apple-system, &amp;quot;apple color emoji&amp;quot;, BlinkMacSystemFont, &amp;quot;Segoe UI&amp;quot;, Roboto, Oxygen-Sans, Ubuntu, Cantarell, &amp;quot;Helvetica Neue&amp;quot;, sans-serif; white-space-collapse: preserve; background-color: rgb(255, 255, 255);&quot;&gt;&lt;font style=&quot;font-size: 10px;&quot;&gt;&lt;br&gt;&lt;/font&gt;&lt;/span&gt;&lt;/div&gt;&lt;div style=&quot;font-size: 12px; font-family: Helvetica; white-space-collapse: collapse; background-color: rgb(251, 251, 251);&quot;&gt;&lt;span style=&quot;font-family: Roboto, -apple-system, &amp;quot;apple color emoji&amp;quot;, BlinkMacSystemFont, &amp;quot;Segoe UI&amp;quot;, Roboto, Oxygen-Sans, Ubuntu, Cantarell, &amp;quot;Helvetica Neue&amp;quot;, sans-serif; white-space-collapse: preserve; background-color: rgb(255, 255, 255);&quot;&gt;&lt;font style=&quot;font-size: 10px;&quot;&gt;&lt;font style=&quot;font-family: Helvetica; white-space-collapse: collapse; background-color: rgb(251, 251, 251); font-size: 9px;&quot;&gt;S4 - проход через калитку запрещён&lt;/font&gt;&lt;/font&gt;&lt;/span&gt;&lt;/div&gt;&lt;div style=&quot;font-family: Helvetica; white-space-collapse: collapse; background-color: rgb(251, 251, 251);&quot;&gt;&lt;span style=&quot;font-size: 12px; font-family: Roboto, -apple-system, &amp;quot;apple color emoji&amp;quot;, BlinkMacSystemFont, &amp;quot;Segoe UI&amp;quot;, Roboto, Oxygen-Sans, Ubuntu, Cantarell, &amp;quot;Helvetica Neue&amp;quot;, sans-serif; white-space-collapse: preserve; background-color: rgb(255, 255, 255);&quot;&gt;&lt;font style=&quot;font-size: 10px;&quot;&gt;&lt;div style=&quot;font-family: Helvetica; font-size: 12px; white-space-collapse: collapse; background-color: rgb(251, 251, 251);&quot;&gt;&lt;font style=&quot;font-size: 9px;&quot;&gt;Индикация калитки сообщает о неправильном пароле&lt;/font&gt;&lt;/div&gt;&lt;div style=&quot;font-family: Helvetica; font-size: 12px; white-space-collapse: collapse; background-color: rgb(251, 251, 251);&quot;&gt;&lt;font style=&quot;font-size: 9px;&quot;&gt;&lt;br&gt;&lt;/font&gt;&lt;/div&gt;&lt;div style=&quot;font-family: Helvetica; font-size: 12px; white-space-collapse: collapse; background-color: rgb(251, 251, 251);&quot;&gt;&lt;font style=&quot;font-size: 9px;&quot;&gt;&lt;div style=&quot;font-size: 12px;&quot;&gt;&lt;font style=&quot;background-color: transparent; color: light-dark(rgb(0, 0, 0), rgb(255, 255, 255));&quot;&gt;&lt;font size=&quot;1&quot;&gt;S5 -&lt;/font&gt;&lt;font style=&quot;font-size: 9px;&quot;&gt;&amp;nbsp;&lt;/font&gt;&lt;/font&gt;&lt;span style=&quot;background-color: transparent; color: light-dark(rgb(0, 0, 0), rgb(255, 255, 255));&quot;&gt;&lt;font style=&quot;font-size: 9px;&quot;&gt;Проход через калитку разрешён&lt;/font&gt;&lt;/span&gt;&lt;/div&gt;&lt;div style=&quot;font-size: 12px;&quot;&gt;&lt;span style=&quot;font-family: Roboto, -apple-system, &amp;quot;apple color emoji&amp;quot;, BlinkMacSystemFont, &amp;quot;Segoe UI&amp;quot;, Roboto, Oxygen-Sans, Ubuntu, Cantarell, &amp;quot;Helvetica Neue&amp;quot;, sans-serif; white-space-collapse: preserve; background-color: rgb(255, 255, 255);&quot;&gt;&lt;font style=&quot;font-size: 9px;&quot;&gt;Запускается StateMachine для управления доступом. Звучит звуковой сигнал, калитка разблокируется и открывается. Система ждет, пока пешеходы пройдут, затем автоматически закрывается, останавливаясь при обнаружении препятствий.&lt;/font&gt;&lt;/span&gt;&lt;/div&gt;&lt;div style=&quot;font-size: 12px;&quot;&gt;&lt;span style=&quot;font-family: Roboto, -apple-system, &amp;quot;apple color emoji&amp;quot;, BlinkMacSystemFont, &amp;quot;Segoe UI&amp;quot;, Roboto, Oxygen-Sans, Ubuntu, Cantarell, &amp;quot;Helvetica Neue&amp;quot;, sans-serif; white-space-collapse: preserve; background-color: rgb(255, 255, 255);&quot;&gt;&lt;font style=&quot;font-size: 9px;&quot;&gt;&lt;br&gt;&lt;/font&gt;&lt;/span&gt;&lt;/div&gt;&lt;div style=&quot;font-size: 12px;&quot;&gt;&lt;span style=&quot;font-family: Roboto, -apple-system, &amp;quot;apple color emoji&amp;quot;, BlinkMacSystemFont, &amp;quot;Segoe UI&amp;quot;, Roboto, Oxygen-Sans, Ubuntu, Cantarell, &amp;quot;Helvetica Neue&amp;quot;, sans-serif; white-space-collapse: preserve; background-color: rgb(255, 255, 255);&quot;&gt;&lt;font style=&quot;font-size: 9px;&quot;&gt;&lt;font style=&quot;font-family: Helvetica; white-space-collapse: collapse; background-color: rgb(251, 251, 251); text-align: center;&quot;&gt;S6 -&lt;/font&gt;&lt;font style=&quot;font-family: Helvetica; white-space-collapse: collapse; background-color: rgb(251, 251, 251); text-align: center; font-size: 10px;&quot;&gt;&amp;nbsp;&lt;/font&gt;&lt;span style=&quot;color: light-dark(rgb(0, 0, 0), rgb(255, 255, 255)); font-family: Helvetica; font-size: 12px; white-space-collapse: collapse; background-color: transparent; text-align: center;&quot;&gt;&lt;font style=&quot;font-size: 9px;&quot;&gt;Проверка UID по базе данных&lt;/font&gt;&lt;/span&gt;&lt;div style=&quot;font-family: Helvetica; font-size: 12px; white-space-collapse: collapse; background-color: rgb(251, 251, 251);&quot;&gt;&lt;span style=&quot;background-color: transparent;&quot;&gt;&lt;div&gt;&lt;font style=&quot;font-size: 9px;&quot;&gt;Ожидаем ответ сервера (Raspberry Pi). Световая индикация ожидания. Блокировка ввода&amp;nbsp;&lt;span style=&quot;background-color: transparent; color: light-dark(rgb(0, 0, 0), rgb(255, 255, 255));&quot;&gt;пароля пользователем.&lt;/span&gt;&lt;/font&gt;&lt;/div&gt;&lt;div&gt;&lt;font style=&quot;font-size: 9px;&quot;&gt;&lt;span style=&quot;background-color: transparent; color: light-dark(rgb(0, 0, 0), rgb(255, 255, 255));&quot;&gt;&lt;br&gt;&lt;/span&gt;&lt;/font&gt;&lt;/div&gt;&lt;div&gt;&lt;font style=&quot;font-size: 9px;&quot;&gt;&lt;div&gt;S7 - Проезд через ворота запрещён&lt;/div&gt;&lt;div&gt;Осуществляем световую и звуковую индикацию. Показываем пользователю сообщение 3&lt;/div&gt;&lt;div&gt;секунды&lt;/div&gt;&lt;/font&gt;&lt;/div&gt;&lt;/span&gt;&lt;/div&gt;&lt;/font&gt;&lt;/span&gt;&lt;/div&gt;&lt;div&gt;&lt;span style=&quot;font-family: Roboto, -apple-system, &amp;quot;apple color emoji&amp;quot;, BlinkMacSystemFont, &amp;quot;Segoe UI&amp;quot;, Roboto, Oxygen-Sans, Ubuntu, Cantarell, &amp;quot;Helvetica Neue&amp;quot;, sans-serif; white-space-collapse: preserve; background-color: rgb(255, 255, 255);&quot;&gt;&lt;font style=&quot;font-size: 9px;&quot;&gt;&lt;br&gt;&lt;/font&gt;&lt;/span&gt;&lt;/div&gt;&lt;div&gt;&lt;span style=&quot;font-family: Roboto, -apple-system, &amp;quot;apple color emoji&amp;quot;, BlinkMacSystemFont, &amp;quot;Segoe UI&amp;quot;, Roboto, Oxygen-Sans, Ubuntu, Cantarell, &amp;quot;Helvetica Neue&amp;quot;, sans-serif; white-space-collapse: preserve; background-color: rgb(255, 255, 255);&quot;&gt;&lt;font style=&quot;font-size: 9px;&quot;&gt;&lt;div style=&quot;font-family: Helvetica; font-size: 12px; white-space-collapse: collapse; background-color: rgb(251, 251, 251);&quot;&gt;&lt;font style=&quot;font-size: 9px;&quot;&gt;S8 - Проезд через ворота разрешён&amp;nbsp;&lt;/font&gt;&lt;/div&gt;&lt;div style=&quot;font-family: Helvetica; font-size: 12px; white-space-collapse: collapse; background-color: rgb(251, 251, 251);&quot;&gt;&lt;font style=&quot;font-size: 9px;&quot;&gt;Запускается вложенная StateMachine S8, описанная отдельно: Звуковое и световое&lt;/font&gt;&lt;/div&gt;&lt;div style=&quot;font-family: Helvetica; font-size: 12px; white-space-collapse: collapse; background-color: rgb(251, 251, 251);&quot;&gt;&lt;font style=&quot;font-size: 9px;&quot;&gt;оповещение открытого доступа. открытие ворот, ожидание проезда автомобиля с&lt;/font&gt;&lt;/div&gt;&lt;div style=&quot;font-family: Helvetica; font-size: 12px; white-space-collapse: collapse; background-color: rgb(251, 251, 251);&quot;&gt;&lt;font style=&quot;font-size: 9px;&quot;&gt;задержкой. Закрытие ворот с остановкой при появлении препятствия - в целях&lt;/font&gt;&lt;/div&gt;&lt;div style=&quot;font-family: Helvetica; font-size: 12px; white-space-collapse: collapse; background-color: rgb(251, 251, 251);&quot;&gt;&lt;font style=&quot;font-size: 9px;&quot;&gt;безопасности&lt;/font&gt;&lt;/div&gt;&lt;/font&gt;&lt;/span&gt;&lt;/div&gt;&lt;/font&gt;&lt;/div&gt;&lt;div&gt;&lt;font style=&quot;font-size: 9px;&quot;&gt;&lt;br&gt;&lt;/font&gt;&lt;/div&gt;&lt;/font&gt;&lt;/span&gt;&lt;/div&gt;&lt;/span&gt;&lt;/font&gt;&lt;/div&gt;&lt;div style=&quot;font-size: 9px;&quot;&gt;&lt;font style=&quot;font-size: 9px;&quot;&gt;&lt;span style=&quot;background-color: rgb(255, 255, 255); font-family: Roboto, -apple-system, &amp;quot;apple color emoji&amp;quot;, BlinkMacSystemFont, &amp;quot;Segoe UI&amp;quot;, Roboto, Oxygen-Sans, Ubuntu, Cantarell, &amp;quot;Helvetica Neue&amp;quot;, sans-serif; white-space-collapse: preserve; color: light-dark(rgb(0, 0, 0), rgb(255, 255, 255));&quot;&gt;&lt;br&gt;&lt;/span&gt;&lt;/font&gt;&lt;/div&gt;&lt;/font&gt;&lt;/span&gt;&lt;/div&gt;&lt;/font&gt;&lt;/div&gt;" style="text;html=1;align=center;verticalAlign=middle;whiteSpace=wrap;rounded=0;" vertex="1" parent="1">
          <mxGeometry x="17" y="1010" width="410" height="781" as="geometry" />
        </mxCell>
        <mxCell id="UQzExY35ptfeDzWS35jL-160" value="&lt;span style=&quot;font-family: Roboto, -apple-system, &amp;quot;apple color emoji&amp;quot;, BlinkMacSystemFont, &amp;quot;Segoe UI&amp;quot;, Roboto, Oxygen-Sans, Ubuntu, Cantarell, &amp;quot;Helvetica Neue&amp;quot;, sans-serif; font-size: 18px; text-align: left; white-space-collapse: preserve; background-color: rgb(255, 255, 255);&quot;&gt;Пояснения к переходам&lt;/span&gt;&lt;div&gt;&lt;div style=&quot;text-align: left;&quot;&gt;&lt;font face=&quot;Roboto, -apple-system, apple color emoji, BlinkMacSystemFont, Segoe UI, Roboto, Oxygen-Sans, Ubuntu, Cantarell, Helvetica Neue, sans-serif&quot;&gt;&lt;span style=&quot;font-size: 18px; white-space-collapse: preserve;&quot;&gt;&lt;br&gt;&lt;/span&gt;&lt;/font&gt;&lt;/div&gt;&lt;div style=&quot;text-align: left;&quot;&gt;&lt;span style=&quot;font-family: Roboto, -apple-system, &amp;quot;apple color emoji&amp;quot;, BlinkMacSystemFont, &amp;quot;Segoe UI&amp;quot;, Roboto, Oxygen-Sans, Ubuntu, Cantarell, &amp;quot;Helvetica Neue&amp;quot;, sans-serif; font-size: 9px; white-space-collapse: preserve; background-color: rgb(255, 255, 255);&quot;&gt;S1-S2: system_verify() - Проверка системы: статус ворот и калитки. Отключение подсветки и сигнализации, сброс введенного кода. Вывод &quot;Приложите карту&quot; на экран.&lt;/span&gt;&lt;font face=&quot;Roboto, -apple-system, apple color emoji, BlinkMacSystemFont, Segoe UI, Roboto, Oxygen-Sans, Ubuntu, Cantarell, Helvetica Neue, sans-serif&quot;&gt;&lt;span style=&quot;font-size: 18px; white-space-collapse: preserve;&quot;&gt;&lt;/span&gt;&lt;/font&gt;&lt;/div&gt;&lt;div style=&quot;text-align: left;&quot;&gt;&lt;span style=&quot;font-family: Roboto, -apple-system, &amp;quot;apple color emoji&amp;quot;, BlinkMacSystemFont, &amp;quot;Segoe UI&amp;quot;, Roboto, Oxygen-Sans, Ubuntu, Cantarell, &amp;quot;Helvetica Neue&amp;quot;, sans-serif; font-size: 9px; white-space-collapse: preserve; background-color: rgb(255, 255, 255);&quot;&gt;&lt;br&gt;&lt;/span&gt;&lt;/div&gt;&lt;div style=&quot;text-align: left;&quot;&gt;&lt;span style=&quot;font-family: Roboto, -apple-system, &amp;quot;apple color emoji&amp;quot;, BlinkMacSystemFont, &amp;quot;Segoe UI&amp;quot;, Roboto, Oxygen-Sans, Ubuntu, Cantarell, &amp;quot;Helvetica Neue&amp;quot;, sans-serif; font-size: 9px; white-space-collapse: preserve; background-color: rgb(255, 255, 255);&quot;&gt;S2-S3: Как только пользователь вводит пароль длиной соответсвующий паролю, начинается обработка пароля, при этом считывание RFID временно отключается. На дисплее отображается &quot;Ожидание доступа&quot;.&lt;/span&gt;&lt;/div&gt;&lt;div style=&quot;text-align: left;&quot;&gt;&lt;span style=&quot;font-family: Roboto, -apple-system, &amp;quot;apple color emoji&amp;quot;, BlinkMacSystemFont, &amp;quot;Segoe UI&amp;quot;, Roboto, Oxygen-Sans, Ubuntu, Cantarell, &amp;quot;Helvetica Neue&amp;quot;, sans-serif; font-size: 9px; white-space-collapse: preserve; background-color: rgb(255, 255, 255);&quot;&gt;&lt;br&gt;&lt;/span&gt;&lt;/div&gt;&lt;div style=&quot;text-align: left;&quot;&gt;&lt;span style=&quot;font-family: Roboto, -apple-system, &amp;quot;apple color emoji&amp;quot;, BlinkMacSystemFont, &amp;quot;Segoe UI&amp;quot;, Roboto, Oxygen-Sans, Ubuntu, Cantarell, &amp;quot;Helvetica Neue&amp;quot;, sans-serif; font-size: 9px; white-space-collapse: preserve; background-color: rgb(255, 255, 255);&quot;&gt;&lt;font style=&quot;font-family: Helvetica; white-space-collapse: collapse; background-color: rgb(251, 251, 251);&quot;&gt;S3-S4: Пешеход ввёл правильный пароль&lt;/font&gt;&lt;/span&gt;&lt;/div&gt;&lt;div style=&quot;text-align: left;&quot;&gt;&lt;font size=&quot;1&quot;&gt;&lt;br&gt;&lt;/font&gt;&lt;span style=&quot;font-family: Roboto, -apple-system, &amp;quot;apple color emoji&amp;quot;, BlinkMacSystemFont, &amp;quot;Segoe UI&amp;quot;, Roboto, Oxygen-Sans, Ubuntu, Cantarell, &amp;quot;Helvetica Neue&amp;quot;, sans-serif; font-size: 9px; white-space-collapse: preserve; background-color: rgb(255, 255, 255);&quot;&gt;&lt;div style=&quot;font-family: Helvetica; font-size: 12px; white-space-collapse: collapse; background-color: rgb(251, 251, 251);&quot;&gt;&lt;font size=&quot;1&quot;&gt;S3-S5:&amp;nbsp;&lt;/font&gt;&lt;span style=&quot;font-size: 9px; background-color: transparent; color: light-dark(rgb(0, 0, 0), rgb(255, 255, 255));&quot;&gt;Пешеход ввёл неправильный пароль&lt;/span&gt;&lt;/div&gt;&lt;div style=&quot;font-family: Helvetica; font-size: 12px; white-space-collapse: collapse; background-color: rgb(251, 251, 251);&quot;&gt;&lt;span style=&quot;font-size: 9px; background-color: transparent; color: light-dark(rgb(0, 0, 0), rgb(255, 255, 255));&quot;&gt;&lt;br&gt;&lt;/span&gt;&lt;/div&gt;&lt;div style=&quot;font-family: Helvetica; font-size: 12px; white-space-collapse: collapse; background-color: rgb(251, 251, 251);&quot;&gt;&lt;font style=&quot;font-size: 9px;&quot;&gt;S4-S2&lt;/font&gt;&lt;font size=&quot;1&quot;&gt;:&amp;nbsp;&lt;/font&gt;&lt;font style=&quot;font-size: 9px;&quot;&gt;Таймаут звуковой индикации&lt;/font&gt;&lt;span style=&quot;font-size: 9px; background-color: transparent; color: light-dark(rgb(0, 0, 0), rgb(255, 255, 255));&quot;&gt;&lt;/span&gt;&lt;/div&gt;&lt;div style=&quot;font-family: Helvetica; font-size: 12px; white-space-collapse: collapse; background-color: rgb(251, 251, 251);&quot;&gt;&lt;font style=&quot;font-size: 9px;&quot;&gt;&lt;br&gt;&lt;/font&gt;&lt;/div&gt;&lt;div style=&quot;font-family: Helvetica; font-size: 12px; white-space-collapse: collapse; background-color: rgb(251, 251, 251);&quot;&gt;&lt;font style=&quot;font-size: 9px;&quot;&gt;S5-S1: Калитка заблокирована.&lt;/font&gt;&lt;/div&gt;&lt;div style=&quot;font-family: Helvetica; font-size: 12px; white-space-collapse: collapse; background-color: rgb(251, 251, 251);&quot;&gt;&lt;font style=&quot;font-size: 9px;&quot;&gt;&lt;br&gt;&lt;/font&gt;&lt;/div&gt;&lt;div style=&quot;font-family: Helvetica; font-size: 12px; white-space-collapse: collapse; background-color: rgb(251, 251, 251);&quot;&gt;&lt;font style=&quot;font-size: 9px;&quot;&gt;&lt;div&gt;S6-S7 (1): Получен ответ от сервера &quot;UID нет в Базе Данных&quot;. Выводим соответствующее&lt;/div&gt;&lt;div&gt;сообщение на дисплей.&lt;/div&gt;&lt;div&gt;&lt;br&gt;&lt;/div&gt;&lt;div&gt;S6-S7 (2): Получен ответ от сервера &quot;Доступ UID просрочен&quot;. Выводим соответствующее&lt;/div&gt;&lt;div&gt;сообщение на дисплей.&lt;/div&gt;&lt;div&gt;&lt;br&gt;&lt;/div&gt;&lt;div&gt;S6-S8: Получен ответ от сервера &quot;Доступ UID разрешён&quot;. Выводим соответствующее&lt;/div&gt;&lt;div&gt;сообщение на дисплей.&lt;/div&gt;&lt;div&gt;&lt;br&gt;&lt;/div&gt;&lt;div&gt;&lt;div style=&quot;font-size: 12px;&quot;&gt;&lt;font style=&quot;font-size: 9px;&quot;&gt;&lt;span style=&quot;background-color: transparent; color: light-dark(rgb(0, 0, 0), rgb(255, 255, 255));&quot;&gt;&lt;div&gt;S7-S2: Прошло 3 секунды и пользователь явно всё понял. Выключаем все индикации.&lt;/div&gt;&lt;div&gt;Вывод &quot;Приложите карту&quot; на дисплей. Введённый пользователем пароль не сбрасывается.&lt;/div&gt;&lt;div&gt;&lt;br&gt;&lt;/div&gt;&lt;div&gt;S8-S2: Ворота закрыты.&amp;nbsp;&lt;/div&gt;&lt;div&gt;&lt;br&gt;&lt;/div&gt;&lt;/span&gt;&lt;/font&gt;&lt;/div&gt;&lt;/div&gt;&lt;/font&gt;&lt;/div&gt;&lt;/span&gt;&lt;/div&gt;&lt;div style=&quot;text-align: left;&quot;&gt;&lt;span style=&quot;font-family: Roboto, -apple-system, &amp;quot;apple color emoji&amp;quot;, BlinkMacSystemFont, &amp;quot;Segoe UI&amp;quot;, Roboto, Oxygen-Sans, Ubuntu, Cantarell, &amp;quot;Helvetica Neue&amp;quot;, sans-serif; font-size: 18px; white-space-collapse: preserve; background-color: rgb(255, 255, 255);&quot;&gt;&lt;br&gt;&lt;/span&gt;&lt;/div&gt;&lt;/div&gt;" style="text;html=1;align=center;verticalAlign=middle;whiteSpace=wrap;rounded=0;" vertex="1" parent="1">
          <mxGeometry x="425" y="960" width="380" height="810" as="geometry" />
        </mxCell>
        <mxCell id="UQzExY35ptfeDzWS35jL-227" value="" style="curved=1;endArrow=classic;html=1;rounded=0;entryX=0.5;entryY=1;entryDx=0;entryDy=0;exitX=0;exitY=0;exitDx=0;exitDy=0;" edge="1" parent="1" source="7xml_MiVRQEzrnD8rN6_-2" target="7xml_MiVRQEzrnD8rN6_-19">
          <mxGeometry width="50" height="50" relative="1" as="geometry">
            <mxPoint x="260" y="470" as="sourcePoint" />
            <mxPoint x="310" y="420" as="targetPoint" />
            <Array as="points">
              <mxPoint x="220" y="460" />
            </Array>
          </mxGeometry>
        </mxCell>
        <mxCell id="UQzExY35ptfeDzWS35jL-244" value="RFID карта&amp;nbsp;&lt;div&gt;считана&lt;/div&gt;" style="edgeLabel;html=1;align=center;verticalAlign=middle;resizable=0;points=[];" connectable="0" vertex="1" parent="UQzExY35ptfeDzWS35jL-227">
          <mxGeometry x="-0.2007" y="-16" relative="1" as="geometry">
            <mxPoint as="offset" />
          </mxGeometry>
        </mxCell>
        <mxCell id="UQzExY35ptfeDzWS35jL-228" value="" style="curved=1;endArrow=classic;html=1;rounded=0;exitX=0.5;exitY=0;exitDx=0;exitDy=0;entryX=0;entryY=0.5;entryDx=0;entryDy=0;" edge="1" parent="1" source="7xml_MiVRQEzrnD8rN6_-19" target="7xml_MiVRQEzrnD8rN6_-21">
          <mxGeometry width="50" height="50" relative="1" as="geometry">
            <mxPoint x="220" y="210" as="sourcePoint" />
            <mxPoint x="270" y="160" as="targetPoint" />
            <Array as="points">
              <mxPoint x="210" y="150" />
            </Array>
          </mxGeometry>
        </mxCell>
        <mxCell id="UQzExY35ptfeDzWS35jL-245" value="&lt;font style=&quot;font-size: 10px;&quot;&gt;Доступ&amp;nbsp;&lt;/font&gt;&lt;div&gt;&lt;font style=&quot;font-size: 10px;&quot;&gt;разрешён&lt;/font&gt;&lt;/div&gt;" style="edgeLabel;html=1;align=center;verticalAlign=middle;resizable=0;points=[];" connectable="0" vertex="1" parent="UQzExY35ptfeDzWS35jL-228">
          <mxGeometry x="-0.1207" y="-16" relative="1" as="geometry">
            <mxPoint as="offset" />
          </mxGeometry>
        </mxCell>
        <mxCell id="UQzExY35ptfeDzWS35jL-230" value="" style="curved=1;endArrow=classic;html=1;rounded=0;exitX=1;exitY=0;exitDx=0;exitDy=0;entryX=0;entryY=0;entryDx=0;entryDy=0;" edge="1" parent="1" source="7xml_MiVRQEzrnD8rN6_-19" target="7xml_MiVRQEzrnD8rN6_-22">
          <mxGeometry width="50" height="50" relative="1" as="geometry">
            <mxPoint x="250" y="270" as="sourcePoint" />
            <mxPoint x="300" y="220" as="targetPoint" />
            <Array as="points">
              <mxPoint x="250" y="250" />
            </Array>
          </mxGeometry>
        </mxCell>
        <mxCell id="UQzExY35ptfeDzWS35jL-247" value="&lt;font style=&quot;font-size: 10px;&quot;&gt;В&lt;/font&gt;&amp;nbsp;&lt;font style=&quot;font-size: 10px;&quot;&gt;базе&amp;nbsp;&lt;/font&gt;&lt;font style=&quot;font-size: 10px;&quot;&gt;нет&amp;nbsp;&lt;/font&gt;&lt;div&gt;&lt;font style=&quot;font-size: 10px;&quot;&gt;UID&amp;nbsp;&lt;/font&gt;карты&lt;/div&gt;" style="edgeLabel;html=1;align=center;verticalAlign=middle;resizable=0;points=[];" connectable="0" vertex="1" parent="UQzExY35ptfeDzWS35jL-230">
          <mxGeometry x="0.1337" y="-8" relative="1" as="geometry">
            <mxPoint as="offset" />
          </mxGeometry>
        </mxCell>
        <mxCell id="UQzExY35ptfeDzWS35jL-231" value="" style="curved=1;endArrow=classic;html=1;rounded=0;exitX=1;exitY=1;exitDx=0;exitDy=0;entryX=0;entryY=1;entryDx=0;entryDy=0;" edge="1" parent="1" source="7xml_MiVRQEzrnD8rN6_-19" target="7xml_MiVRQEzrnD8rN6_-22">
          <mxGeometry width="50" height="50" relative="1" as="geometry">
            <mxPoint x="260" y="380" as="sourcePoint" />
            <mxPoint x="310" y="330" as="targetPoint" />
            <Array as="points">
              <mxPoint x="260" y="360" />
            </Array>
          </mxGeometry>
        </mxCell>
        <mxCell id="UQzExY35ptfeDzWS35jL-248" value="Доступ&amp;nbsp;&lt;div&gt;просрочен&lt;/div&gt;" style="edgeLabel;html=1;align=center;verticalAlign=middle;resizable=0;points=[];" connectable="0" vertex="1" parent="UQzExY35ptfeDzWS35jL-231">
          <mxGeometry x="-0.1583" y="12" relative="1" as="geometry">
            <mxPoint as="offset" />
          </mxGeometry>
        </mxCell>
        <mxCell id="UQzExY35ptfeDzWS35jL-232" value="" style="endArrow=classic;html=1;rounded=0;exitX=0.5;exitY=1;exitDx=0;exitDy=0;entryX=0.5;entryY=0;entryDx=0;entryDy=0;" edge="1" parent="1" source="7xml_MiVRQEzrnD8rN6_-22" target="7xml_MiVRQEzrnD8rN6_-2">
          <mxGeometry width="50" height="50" relative="1" as="geometry">
            <mxPoint x="390" y="430" as="sourcePoint" />
            <mxPoint x="440" y="380" as="targetPoint" />
          </mxGeometry>
        </mxCell>
        <mxCell id="UQzExY35ptfeDzWS35jL-233" value="" style="curved=1;endArrow=classic;html=1;rounded=0;exitX=1;exitY=1;exitDx=0;exitDy=0;entryX=1;entryY=0;entryDx=0;entryDy=0;" edge="1" parent="1" source="7xml_MiVRQEzrnD8rN6_-21" target="7xml_MiVRQEzrnD8rN6_-2">
          <mxGeometry width="50" height="50" relative="1" as="geometry">
            <mxPoint x="460" y="290" as="sourcePoint" />
            <mxPoint x="510" y="240" as="targetPoint" />
            <Array as="points">
              <mxPoint x="540" y="290" />
            </Array>
          </mxGeometry>
        </mxCell>
        <mxCell id="UQzExY35ptfeDzWS35jL-246" value="Ворота закрылись" style="edgeLabel;html=1;align=center;verticalAlign=middle;resizable=0;points=[];" connectable="0" vertex="1" parent="UQzExY35ptfeDzWS35jL-233">
          <mxGeometry x="-0.2506" y="-61" relative="1" as="geometry">
            <mxPoint x="-2" y="16" as="offset" />
          </mxGeometry>
        </mxCell>
        <mxCell id="UQzExY35ptfeDzWS35jL-234" value="" style="endArrow=classic;html=1;rounded=0;exitX=0.5;exitY=1;exitDx=0;exitDy=0;entryX=0.5;entryY=0;entryDx=0;entryDy=0;" edge="1" parent="1" source="7xml_MiVRQEzrnD8rN6_-2" target="7xml_MiVRQEzrnD8rN6_-5">
          <mxGeometry width="50" height="50" relative="1" as="geometry">
            <mxPoint x="390" y="670" as="sourcePoint" />
            <mxPoint x="440" y="620" as="targetPoint" />
          </mxGeometry>
        </mxCell>
        <mxCell id="UQzExY35ptfeDzWS35jL-239" value="&lt;font style=&quot;font-size: 10px;&quot;&gt;Пароль&amp;nbsp;&lt;/font&gt;&lt;div&gt;&lt;span style=&quot;background-color: light-dark(#ffffff, var(--ge-dark-color, #121212)); color: light-dark(rgb(0, 0, 0), rgb(255, 255, 255));&quot;&gt;&lt;font style=&quot;font-size: 10px;&quot;&gt;получен&lt;/font&gt;&lt;/span&gt;&lt;/div&gt;" style="edgeLabel;html=1;align=center;verticalAlign=middle;resizable=0;points=[];" connectable="0" vertex="1" parent="UQzExY35ptfeDzWS35jL-234">
          <mxGeometry x="0.1606" relative="1" as="geometry">
            <mxPoint x="1" y="-23" as="offset" />
          </mxGeometry>
        </mxCell>
        <mxCell id="UQzExY35ptfeDzWS35jL-235" value="" style="endArrow=classic;html=1;rounded=0;exitX=1;exitY=0.5;exitDx=0;exitDy=0;entryX=0;entryY=0.5;entryDx=0;entryDy=0;" edge="1" parent="1" source="7xml_MiVRQEzrnD8rN6_-5" target="7xml_MiVRQEzrnD8rN6_-9">
          <mxGeometry width="50" height="50" relative="1" as="geometry">
            <mxPoint x="390" y="860" as="sourcePoint" />
            <mxPoint x="440" y="810" as="targetPoint" />
          </mxGeometry>
        </mxCell>
        <mxCell id="UQzExY35ptfeDzWS35jL-240" value="&lt;span style=&quot;font-family: Roboto, -apple-system, &amp;quot;apple color emoji&amp;quot;, BlinkMacSystemFont, &amp;quot;Segoe UI&amp;quot;, Roboto, Oxygen-Sans, Ubuntu, Cantarell, &amp;quot;Helvetica Neue&amp;quot;, sans-serif; text-align: start; white-space: pre-wrap;&quot;&gt;&lt;font style=&quot;font-size: 10px;&quot;&gt;Пароль &lt;/font&gt;&lt;/span&gt;&lt;div&gt;&lt;span style=&quot;font-family: Roboto, -apple-system, &amp;quot;apple color emoji&amp;quot;, BlinkMacSystemFont, &amp;quot;Segoe UI&amp;quot;, Roboto, Oxygen-Sans, Ubuntu, Cantarell, &amp;quot;Helvetica Neue&amp;quot;, sans-serif; text-align: start; white-space: pre-wrap;&quot;&gt;&lt;font style=&quot;font-size: 10px;&quot;&gt;правильный&lt;/font&gt;&lt;/span&gt;&lt;/div&gt;" style="edgeLabel;html=1;align=center;verticalAlign=middle;resizable=0;points=[];" connectable="0" vertex="1" parent="UQzExY35ptfeDzWS35jL-235">
          <mxGeometry x="-0.1268" relative="1" as="geometry">
            <mxPoint as="offset" />
          </mxGeometry>
        </mxCell>
        <mxCell id="UQzExY35ptfeDzWS35jL-236" value="" style="endArrow=classic;html=1;rounded=0;exitX=0;exitY=0.5;exitDx=0;exitDy=0;entryX=1;entryY=0.5;entryDx=0;entryDy=0;" edge="1" parent="1" source="7xml_MiVRQEzrnD8rN6_-5" target="7xml_MiVRQEzrnD8rN6_-10">
          <mxGeometry width="50" height="50" relative="1" as="geometry">
            <mxPoint x="260" y="860" as="sourcePoint" />
            <mxPoint x="310" y="810" as="targetPoint" />
          </mxGeometry>
        </mxCell>
        <mxCell id="UQzExY35ptfeDzWS35jL-241" value="&lt;font style=&quot;font-size: 10px;&quot;&gt;Пароль&lt;/font&gt;&lt;div&gt;&lt;font style=&quot;font-size: 10px;&quot;&gt;неправильный&lt;/font&gt;&lt;/div&gt;" style="edgeLabel;html=1;align=center;verticalAlign=middle;resizable=0;points=[];" connectable="0" vertex="1" parent="UQzExY35ptfeDzWS35jL-236">
          <mxGeometry x="-0.0893" y="-1" relative="1" as="geometry">
            <mxPoint as="offset" />
          </mxGeometry>
        </mxCell>
        <mxCell id="UQzExY35ptfeDzWS35jL-237" value="" style="curved=1;endArrow=classic;html=1;rounded=0;exitX=0.5;exitY=0;exitDx=0;exitDy=0;entryX=1;entryY=1;entryDx=0;entryDy=0;" edge="1" parent="1" source="7xml_MiVRQEzrnD8rN6_-9" target="7xml_MiVRQEzrnD8rN6_-2">
          <mxGeometry width="50" height="50" relative="1" as="geometry">
            <mxPoint x="480" y="660" as="sourcePoint" />
            <mxPoint x="530" y="610" as="targetPoint" />
            <Array as="points">
              <mxPoint x="470" y="620" />
            </Array>
          </mxGeometry>
        </mxCell>
        <mxCell id="UQzExY35ptfeDzWS35jL-242" value="timeout" style="edgeLabel;html=1;align=center;verticalAlign=middle;resizable=0;points=[];" connectable="0" vertex="1" parent="UQzExY35ptfeDzWS35jL-237">
          <mxGeometry x="-0.0952" y="16" relative="1" as="geometry">
            <mxPoint x="-2" y="5" as="offset" />
          </mxGeometry>
        </mxCell>
        <mxCell id="UQzExY35ptfeDzWS35jL-238" value="" style="curved=1;endArrow=classic;html=1;rounded=0;exitX=0.5;exitY=0;exitDx=0;exitDy=0;entryX=0;entryY=1;entryDx=0;entryDy=0;" edge="1" parent="1" source="7xml_MiVRQEzrnD8rN6_-10" target="7xml_MiVRQEzrnD8rN6_-2">
          <mxGeometry width="50" height="50" relative="1" as="geometry">
            <mxPoint x="240" y="680" as="sourcePoint" />
            <mxPoint x="290" y="630" as="targetPoint" />
            <Array as="points">
              <mxPoint x="220" y="630" />
            </Array>
          </mxGeometry>
        </mxCell>
        <mxCell id="UQzExY35ptfeDzWS35jL-243" value="timeout" style="edgeLabel;html=1;align=center;verticalAlign=middle;resizable=0;points=[];" connectable="0" vertex="1" parent="UQzExY35ptfeDzWS35jL-238">
          <mxGeometry x="0.1557" y="-12" relative="1" as="geometry">
            <mxPoint x="-14" y="15" as="offset" />
          </mxGeometry>
        </mxCell>
      </root>
    </mxGraphModel>
  </diagram>
</mxfile>
